<?xml version="1.0"?>
<svg width="805" height="417" xmlns="http://www.w3.org/2000/svg" xmlns:svg="http://www.w3.org/2000/svg" enable-background="new 0 0 800 800" version="1.1" xml:space="preserve">
 <g class="layer">
  <title>Layer 1</title>
  <g id="Background">
   <rect fill="#FFFFFF" height="412" id="XMLID_425_" width="802" x="1.92" y="0"/>
   <g id="XMLID_1_">
    <g id="XMLID_1660_">
     <g id="XMLID_1661_">
      <path d="m721.85,175.99c0,-78.9 -64.16,-142.87 -143.32,-142.87s-143.33,63.97 -143.33,142.87c0,34.58 12.32,66.28 32.82,90.99l221.02,0c20.49,-24.71 32.81,-56.41 32.81,-90.99z" fill="#4396D5" id="XMLID_4_"/>
     </g>
    </g>
    <g id="XMLID_3_">
     <g id="XMLID_3013_">
      <path d="m713.31,229.32c-7.65,0 -14.72,2.2 -20.46,5.91c-6.54,-12.8 -17.26,-23.54 -30.65,-30.84c0.06,-0.44 0.11,-0.89 0.11,-1.35c0,-6.02 -5.49,-10.89 -12.26,-10.89c-2.08,0 -4.03,0.46 -5.74,1.27c0.1,-1.11 0.16,-2.23 0.16,-3.36c0,-4.03 -0.65,-7.92 -1.85,-11.61c10.88,-6.64 18.03,-17.77 18.03,-30.39c0,-20.36 -18.58,-36.85 -41.49,-36.85c-8.29,0 -15.99,2.17 -22.47,5.88c-20.09,-27.42 -54.89,-45.54 -94.46,-45.54c-6.8,0 -13.45,0.53 -19.92,1.56c0.01,-0.27 0.02,-0.53 0.02,-0.8c0,-21.48 -19.59,-38.9 -43.77,-38.9c-18.3,0 -33.96,9.97 -40.51,24.14c-3.45,-2.45 -7.82,-3.93 -12.59,-3.93c-9.69,0 -17.78,6.08 -19.72,14.17c-0.21,0 -0.41,-0.03 -0.62,-0.03c-13.5,0 -24.45,9.72 -24.45,21.72c0,1.24 0.14,2.45 0.37,3.64c-5.45,0.41 -10.49,2.09 -14.75,4.71c-9.09,-15.46 -27.29,-26.03 -48.28,-26.03c-30.06,0 -54.44,21.67 -54.44,48.38c0,6.46 1.43,12.61 4.01,18.24c-48.64,18.5 -83.24,60.53 -85.68,109.99l-0.15,-0.01l0,162.15l606.4,0l0,-150.27c0,-17.09 -15.6,-30.96 -34.85,-30.96l0.01,0z" fill="#FED9CA" id="XMLID_1365_"/>
     </g>
     <g id="XMLID_2868_">
      <path d="m688.63,196.34l79.12,0c0,0 -5.71,-6.35 -16.85,-5.33c0,0 9.67,-16.47 -5.43,-19.54c-13.74,-2.79 -15.42,14.21 -15.42,14.21s-9.71,-4.82 -14.86,2.28c0,0 -19.71,-3.04 -26.56,8.38z" fill="#FED9CA" id="XMLID_6_"/>
     </g>
     <g id="XMLID_2858_"/>
     <g id="XMLID_3079_">
      <g id="XMLID_3081_">
       <path d="m739.6,213.45l-20.07,0c-0.41,0 -0.75,-0.29 -0.75,-0.67c0,-0.37 0.34,-0.67 0.75,-0.67l20.07,0c0.42,0 0.75,0.3 0.75,0.67c0,0.37 -0.33,0.67 -0.75,0.67z" fill="#4396D5" id="XMLID_1170_"/>
      </g>
      <g id="XMLID_3080_">
       <path d="m745.05,208.33l-20.99,0c-0.41,0 -0.75,-0.3 -0.75,-0.67c0,-0.37 0.34,-0.67 0.75,-0.67l20.99,0c0.41,0 0.75,0.29 0.75,0.67c0,0.37 -0.34,0.67 -0.75,0.67z" fill="#4396D5" id="XMLID_1169_"/>
      </g>
     </g>
     <g id="XMLID_3082_"/>
    </g>
   </g>
  </g>
  <g id="Objects">
   <g id="XMLID_2_">
    <g id="XMLID_9_">
     <g id="XMLID_2998_">
      <g id="XMLID_2870_">
       <g id="XMLID_2920_">
        <g id="XMLID_432_">
         <rect fill="#4396D5" height="155.92" id="XMLID_1363_" width="10.18" x="224.65" y="224.92"/>
        </g>
        <g id="XMLID_433_">
         <path d="m235.38,381.35l-11.27,0l0,-156.93l11.27,0l0,156.93zm-10.17,-1l9.06,0l0,-154.92l-9.06,0l0,154.92z" fill="#1F2024" id="XMLID_14_"/>
        </g>
       </g>
       <g id="XMLID_2919_">
        <g id="XMLID_421_">
         <rect fill="#4396D5" height="155.92" id="XMLID_1362_" width="10.18" x="403.1" y="224.92"/>
        </g>
        <g id="XMLID_426_">
         <path d="m413.81,381.35l-11.27,0l0,-156.93l11.27,0l0,156.93zm-10.17,-1l9.06,0l0,-154.92l-9.06,0l0,154.92z" fill="#1F2024" id="XMLID_15_"/>
        </g>
       </g>
       <g id="XMLID_2918_">
        <g id="XMLID_424_">
         <path d="m488.93,294.17c-42.02,0 -76.22,-31.07 -76.22,-69.25l1.1,0c0,37.64 33.69,68.25 75.12,68.25c4.62,0 9.25,-0.38 13.76,-1.14l0.2,0.99c-4.57,0.76 -9.27,1.15 -13.96,1.15z" fill="#1F2024" id="XMLID_16_"/>
        </g>
       </g>
       <g id="XMLID_2917_">
        <g id="XMLID_423_">
         <path d="m149,294.17c-2.62,0 -5.25,-0.12 -7.86,-0.36l0.12,-0.99c2.55,0.23 5.15,0.35 7.74,0.35c20.11,0 38.97,-6.99 53.11,-19.7c14.15,-12.7 21.95,-29.67 21.99,-47.8c0,-0.02 0,-0.04 0,-0.06c0,-0.01 0,-0.01 0,-0.01c0,-0.04 0,-0.07 0,-0.1l0.01,0c0.04,-0.45 0.35,-0.52 0.54,-0.52l0,0l0.55,0.52c0,0.05 0,0.11 0,0.17c0,0.46 0,0.8 -0.01,1.06c0,0.06 0,0.13 0,0.2l-0.01,0l0.01,0c0,0 0,0 0,0.01l0.01,0l-0.01,0c-0.4,17.92 -8.29,34.65 -22.31,47.24c-14.36,12.89 -33.5,19.99 -53.89,19.99z" fill="#1F2024" id="XMLID_17_"/>
        </g>
       </g>
       <g id="XMLID_2916_">
        <g id="XMLID_422_">
         <path d="m319.38,294.17c-43.65,0 -81.03,-30.39 -85.1,-69.2l1.09,-0.1c4.03,38.3 40.93,68.3 84.01,68.3c20.82,0 40.75,-7.02 56.1,-19.79c15.26,-12.68 24.73,-29.92 26.69,-48.54l1.09,0.09c-1.96,18.87 -11.57,36.34 -27.03,49.2c-15.56,12.93 -35.75,20.05 -56.85,20.05z" fill="#1F2024" id="XMLID_18_"/>
        </g>
       </g>
       <g id="XMLID_2915_">
        <g id="XMLID_381_">
         <polygon fill="#4396D5" id="XMLID_19_" points="141.15530395507812,314.09063720703125 502.7970886230469,314.09063720703125 502.7970886230469,322.066650390625 141.19619750976562,322.066650390625 "/>
        </g>
        <g id="XMLID_418_">
         <path d="m503.35,322.57l-362.7,0l-0.04,-8.98l362.74,0l0,8.98zm-361.61,-1l360.5,0l0,-6.97l-360.53,0l0.03,6.97z" fill="#1F2024" id="XMLID_20_"/>
        </g>
       </g>
       <g id="XMLID_2904_">
        <g id="XMLID_2905_">
         <g id="XMLID_2914_">
          <g id="XMLID_417_">
           <rect fill="#1F2024" height="20.42" id="XMLID_23_" width="1.1" x="145.69" y="293.67"/>
          </g>
         </g>
         <g id="XMLID_2913_">
          <g id="XMLID_416_">
           <rect fill="#1F2024" height="20.42" id="XMLID_24_" width="1.1" x="154.33" y="293.67"/>
          </g>
         </g>
         <g id="XMLID_2912_">
          <g id="XMLID_415_">
           <rect fill="#1F2024" height="21.66" id="XMLID_25_" width="1.1" x="162.96" y="292.43"/>
          </g>
         </g>
         <g id="XMLID_2911_">
          <g id="XMLID_414_">
           <rect fill="#1F2024" height="23.64" id="XMLID_26_" width="1.1" x="171.59" y="290.45"/>
          </g>
         </g>
         <g id="XMLID_2910_">
          <g id="XMLID_413_">
           <rect fill="#1F2024" height="26.66" id="XMLID_27_" width="1.1" x="180.23" y="287.43"/>
          </g>
         </g>
         <g id="XMLID_2909_">
          <g id="XMLID_412_">
           <rect fill="#1F2024" height="30.87" id="XMLID_28_" width="1.1" x="188.87" y="283.22"/>
          </g>
         </g>
         <g id="XMLID_2908_">
          <g id="XMLID_411_">
           <rect fill="#1F2024" height="37.02" id="XMLID_29_" width="1.1" x="197.51" y="277.08"/>
          </g>
         </g>
         <g id="XMLID_2907_">
          <g id="XMLID_410_">
           <rect fill="#1F2024" height="44.3" id="XMLID_30_" width="1.1" x="206.14" y="269.79"/>
          </g>
         </g>
         <g id="XMLID_2906_">
          <g id="XMLID_409_">
           <rect fill="#1F2024" height="55.64" id="XMLID_31_" width="1.1" x="214.78" y="258.45"/>
          </g>
         </g>
        </g>
       </g>
       <g id="XMLID_2893_">
        <g id="XMLID_2894_">
         <g id="XMLID_2903_">
          <g id="XMLID_408_">
           <rect fill="#1F2024" height="20.42" id="XMLID_32_" width="1.1" x="320.1" y="293.67"/>
          </g>
         </g>
         <g id="XMLID_2902_">
          <g id="XMLID_407_">
           <rect fill="#1F2024" height="20.94" id="XMLID_33_" width="1.1" x="328.74" y="293.15"/>
          </g>
         </g>
         <g id="XMLID_2901_">
          <g id="XMLID_406_">
           <rect fill="#1F2024" height="22.29" id="XMLID_34_" width="1.1" x="337.37" y="291.81"/>
          </g>
         </g>
         <g id="XMLID_2900_">
          <g id="XMLID_405_">
           <rect fill="#1F2024" height="24.51" id="XMLID_35_" width="1.1" x="346.02" y="289.58"/>
          </g>
         </g>
         <g id="XMLID_2899_">
          <g id="XMLID_404_">
           <rect fill="#1F2024" height="27.63" id="XMLID_36_" width="1.1" x="354.65" y="286.46"/>
          </g>
         </g>
         <g id="XMLID_2898_">
          <g id="XMLID_403_">
           <rect fill="#1F2024" height="32.02" id="XMLID_37_" width="1.1" x="363.29" y="282.07"/>
          </g>
         </g>
         <g id="XMLID_2897_">
          <g id="XMLID_402_">
           <rect fill="#1F2024" height="37.67" id="XMLID_38_" width="1.1" x="371.92" y="276.42"/>
          </g>
         </g>
         <g id="XMLID_2896_">
          <g id="XMLID_401_">
           <rect fill="#1F2024" height="45.1" id="XMLID_39_" width="1.1" x="380.55" y="268.99"/>
          </g>
         </g>
         <g id="XMLID_2895_">
          <g id="XMLID_400_">
           <rect fill="#1F2024" height="55.26" id="XMLID_40_" width="1.1" x="389.19" y="258.83"/>
          </g>
         </g>
        </g>
       </g>
       <g id="XMLID_2882_">
        <g id="XMLID_2883_">
         <g id="XMLID_2892_">
          <g id="XMLID_399_">
           <rect fill="#1F2024" height="20.42" id="XMLID_41_" width="1.1" x="314.97" y="293.67"/>
          </g>
         </g>
         <g id="XMLID_2891_">
          <g id="XMLID_398_">
           <rect fill="#1F2024" height="21.25" id="XMLID_42_" width="1.1" x="306.33" y="292.84"/>
          </g>
         </g>
         <g id="XMLID_2890_">
          <g id="XMLID_397_">
           <rect fill="#1F2024" height="22.84" id="XMLID_43_" width="1.1" x="297.7" y="291.25"/>
          </g>
         </g>
         <g id="XMLID_2889_">
          <g id="XMLID_396_">
           <rect fill="#1F2024" height="25.31" id="XMLID_44_" width="1.1" x="289.05" y="288.78"/>
          </g>
         </g>
         <g id="XMLID_2888_">
          <g id="XMLID_395_">
           <rect fill="#1F2024" height="28.75" id="XMLID_45_" width="1.1" x="280.42" y="285.34"/>
          </g>
         </g>
         <g id="XMLID_2887_">
          <g id="XMLID_394_">
           <rect fill="#1F2024" height="33.29" id="XMLID_46_" width="1.1" x="271.78" y="280.8"/>
          </g>
         </g>
         <g id="XMLID_2886_">
          <g id="XMLID_393_">
           <rect fill="#1F2024" height="39.21" id="XMLID_47_" width="1.1" x="263.15" y="274.88"/>
          </g>
         </g>
         <g id="XMLID_2885_">
          <g id="XMLID_392_">
           <rect fill="#1F2024" height="46.97" id="XMLID_48_" width="1.1" x="254.52" y="267.12"/>
          </g>
         </g>
         <g id="XMLID_2884_">
          <g id="XMLID_391_">
           <rect fill="#1F2024" height="57.64" id="XMLID_49_" width="1.1" x="245.88" y="256.46"/>
          </g>
         </g>
        </g>
       </g>
       <g id="XMLID_2871_">
        <g id="XMLID_2872_">
         <g id="XMLID_2881_">
          <g id="XMLID_390_">
           <rect fill="#1F2024" height="20.42" id="XMLID_50_" width="1.1" x="492.02" y="293.67"/>
          </g>
         </g>
         <g id="XMLID_2880_">
          <g id="XMLID_389_">
           <rect fill="#1F2024" height="20.56" id="XMLID_51_" width="1.1" x="483.39" y="293.53"/>
          </g>
         </g>
         <g id="XMLID_2879_">
          <g id="XMLID_388_">
           <rect fill="#1F2024" height="21.18" id="XMLID_52_" width="1.1" x="474.76" y="292.91"/>
          </g>
         </g>
         <g id="XMLID_2878_">
          <g id="XMLID_387_">
           <rect fill="#1F2024" height="23.12" id="XMLID_53_" width="1.1" x="466.11" y="290.97"/>
          </g>
         </g>
         <g id="XMLID_2877_">
          <g id="XMLID_386_">
           <rect fill="#1F2024" height="26.07" id="XMLID_54_" width="1.1" x="457.48" y="288.02"/>
          </g>
         </g>
         <g id="XMLID_2876_">
          <g id="XMLID_385_">
           <rect fill="#1F2024" height="30.18" id="XMLID_55_" width="1.1" x="448.84" y="283.91"/>
          </g>
         </g>
         <g id="XMLID_2875_">
          <g id="XMLID_384_">
           <rect fill="#1F2024" height="36.18" id="XMLID_56_" width="1.1" x="440.21" y="277.91"/>
          </g>
         </g>
         <g id="XMLID_2874_">
          <g id="XMLID_383_">
           <rect fill="#1F2024" height="43.75" id="XMLID_57_" width="1.1" x="431.57" y="270.34"/>
          </g>
         </g>
         <g id="XMLID_2873_">
          <g id="XMLID_382_">
           <rect fill="#1F2024" height="54.8" id="XMLID_58_" width="1.1" x="422.94" y="259.3"/>
          </g>
         </g>
        </g>
       </g>
      </g>
      <g id="XMLID_2932_">
       <g id="XMLID_377_">
        <rect fill="#4396D5" height="6.19" id="XMLID_1361_" width="27.24" x="394.57" y="218.83"/>
       </g>
       <g id="XMLID_378_">
        <path d="m422.36,225.52l-28.34,0l0,-7.19l28.34,0l0,7.19zm-27.24,-1l26.13,0l0,-5.19l-26.13,0l0,5.19z" fill="#1F2024" id="XMLID_13_"/>
       </g>
      </g>
      <g id="XMLID_2933_">
       <g id="XMLID_367_">
        <rect fill="#4396D5" height="6.19" id="XMLID_1360_" width="27.24" x="216.12" y="218.83"/>
       </g>
       <g id="XMLID_374_">
        <path d="m243.91,225.52l-28.34,0l0,-7.19l28.34,0l0,7.19zm-27.24,-1l26.12,0l0,-5.19l-26.12,0l0,5.19z" fill="#1F2024" id="XMLID_21_"/>
       </g>
      </g>
     </g>
     <g id="XMLID_2996_">
      <g id="XMLID_11_">
       <path d="m169.91,378.83c5.47,0 5.47,-4.01 10.96,-4.01c5.47,0 5.47,4.01 10.96,4.01c5.47,0 5.47,-4.01 10.96,-4.01c5.46,0 5.46,4.01 10.94,4.01c5.47,0 5.47,-4.01 10.94,-4.01c5.47,0 5.47,4.01 10.94,4.01c5.47,0 5.47,-4.01 10.94,-4.01c5.47,0 5.47,4.01 10.96,4.01c5.46,0 5.46,-4.01 10.94,-4.01c5.46,0 5.46,4.01 10.94,4.01c5.47,0 5.47,-4.01 10.94,-4.01c5.47,0 5.47,4.01 10.94,4.01s5.47,-4.01 10.94,-4.01c5.47,0 5.47,4.01 10.94,4.01c5.47,0 5.47,-4.01 10.94,-4.01c5.47,0 5.47,4.01 10.94,4.01c5.47,0 5.47,-4.01 10.94,-4.01c5.46,0 5.46,4.01 10.94,4.01c5.46,0 5.46,-4.01 10.94,-4.01c5.46,0 5.46,4.01 10.93,4.01c5.47,0 5.47,-4.01 10.94,-4.01c5.46,0 5.46,4.01 10.93,4.01c5.47,0 5.47,-4.01 10.94,-4.01c5.47,0 5.47,4.01 10.94,4.01c5.47,0 5.47,-4.01 10.94,-4.01c5.47,0 5.47,4.01 10.94,4.01c5.46,0 5.46,-4.01 10.94,-4.01c5.46,0 5.46,4.01 10.94,4.01l0,7.62l-306.39,0l0,-7.62l0.09,0z" fill="#4396D5" id="XMLID_12_"/>
      </g>
     </g>
     <g id="XMLID_10_">
      <g id="XMLID_2995_">
       <g id="XMLID_59_">
        <rect fill="#4396D5" height="39.94" id="XMLID_1338_" width="806.64" x="0" y="377.4"/>
       </g>
      </g>
      <g id="XMLID_2980_"/>
     </g>
    </g>
    <g id="XMLID_22_">
     <g id="XMLID_2867_">
      <g id="XMLID_315_">
       <path d="m474.78,379.84c-3.13,0 -4.76,-1.19 -6.18,-2.24c-1.3,-0.95 -2.43,-1.78 -4.78,-1.78c-2.36,0 -3.48,0.82 -4.79,1.78c-1.43,1.04 -3.04,2.24 -6.17,2.24c-3.13,0 -4.74,-1.19 -6.17,-2.24c-1.31,-0.95 -2.44,-1.78 -4.79,-1.78c-2.34,0 -3.47,0.82 -4.79,1.78c-1.43,1.04 -3.04,2.24 -6.17,2.24c-3.13,0 -4.74,-1.19 -6.17,-2.24c-1.3,-0.95 -2.43,-1.78 -4.79,-1.78c-2.34,0 -3.47,0.82 -4.78,1.78c-1.43,1.04 -3.05,2.24 -6.18,2.24c-3.13,0 -4.74,-1.19 -6.17,-2.24c-1.3,-0.95 -2.43,-1.78 -4.78,-1.78c-2.34,0 -3.48,0.82 -4.79,1.78c-1.43,1.04 -3.04,2.24 -6.17,2.24c-3.13,0 -4.74,-1.19 -6.17,-2.24c-1.3,-0.95 -2.43,-1.78 -4.78,-1.78c-2.36,0 -3.48,0.82 -4.79,1.78c-1.43,1.04 -3.04,2.24 -6.17,2.24c-3.13,0 -4.74,-1.19 -6.17,-2.24c-1.3,-0.95 -2.44,-1.78 -4.79,-1.78c-2.34,0 -3.47,0.82 -4.79,1.78c-1.43,1.04 -3.04,2.24 -6.17,2.24c-3.13,0 -4.74,-1.19 -6.17,-2.24c-1.3,-0.95 -2.43,-1.78 -4.79,-1.78c-2.34,0 -3.47,0.82 -4.78,1.78c-1.43,1.04 -3.04,2.24 -6.18,2.24c-3.13,0 -4.74,-1.19 -6.17,-2.24c-1.3,-0.95 -2.43,-1.78 -4.79,-1.78c-2.34,0 -3.47,0.82 -4.78,1.78c-1.43,1.04 -3.05,2.24 -6.18,2.24c-3.13,0 -4.74,-1.19 -6.17,-2.24c-1.3,-0.95 -2.43,-1.78 -4.79,-1.78c-2.34,0 -3.47,0.82 -4.78,1.78c-1.43,1.04 -3.05,2.24 -6.18,2.24c-3.13,0 -4.74,-1.19 -6.17,-2.24c-1.31,-0.95 -2.44,-1.78 -4.79,-1.78c-2.36,0 -3.48,0.82 -4.79,1.78c-1.43,1.04 -3.04,2.24 -6.17,2.24c-3.13,0 -4.76,-1.19 -6.18,-2.24c-1.3,-0.95 -2.43,-1.78 -4.79,-1.78c-2.34,0 -3.47,0.82 -4.78,1.78c-1.43,1.04 -3.04,2.24 -6.17,2.24c-3.14,0 -4.76,-1.19 -6.18,-2.24c-1.3,-0.95 -2.43,-1.78 -4.78,-1.78c-2.36,0 -3.48,0.82 -4.79,1.78c-1.43,1.04 -3.05,2.24 -6.18,2.24c-3.13,0 -4.74,-1.19 -6.17,-2.24c-1.31,-0.95 -2.44,-1.78 -4.79,-1.78c-2.36,0 -3.48,0.82 -4.79,1.78c-1.43,1.04 -3.04,2.24 -6.18,2.24c-3.13,0 -4.74,-1.19 -6.17,-2.24c-1.31,-0.95 -2.44,-1.78 -4.8,-1.78c-2.34,0 -3.48,0.82 -4.79,1.78c-1.43,1.04 -3.04,2.24 -6.18,2.24l0,-2.01c2.36,0 3.48,-0.83 4.8,-1.79c1.43,-1.04 3.04,-2.23 6.17,-2.23c3.14,0 4.76,1.18 6.18,2.23c1.3,0.95 2.44,1.79 4.79,1.79c2.36,0 3.48,-0.83 4.79,-1.79c1.43,-1.04 3.05,-2.23 6.18,-2.23c3.13,0 4.74,1.18 6.17,2.23c1.31,0.95 2.44,1.79 4.79,1.79c2.36,0 3.48,-0.83 4.79,-1.79c1.43,-1.04 3.04,-2.23 6.17,-2.23c3.14,0 4.76,1.18 6.18,2.23c1.3,0.95 2.43,1.79 4.78,1.79c2.36,0 3.48,-0.83 4.79,-1.79c1.43,-1.04 3.04,-2.23 6.17,-2.23c3.14,0 4.76,1.18 6.18,2.23c1.3,0.95 2.43,1.79 4.79,1.79s3.47,-0.83 4.78,-1.79c1.43,-1.04 3.05,-2.23 6.18,-2.23c3.13,0 4.74,1.18 6.17,2.23c1.3,0.95 2.43,1.79 4.79,1.79s3.48,-0.83 4.79,-1.79c1.43,-1.04 3.04,-2.23 6.17,-2.23c3.13,0 4.74,1.18 6.17,2.23c1.31,0.95 2.44,1.79 4.79,1.79c2.36,0 3.48,-0.83 4.79,-1.79c1.43,-1.04 3.04,-2.23 6.17,-2.23c3.13,0 4.74,1.18 6.17,2.23c1.31,0.95 2.44,1.79 4.79,1.79s3.48,-0.83 4.79,-1.79c1.43,-1.04 3.04,-2.23 6.17,-2.23c3.13,0 4.74,1.18 6.17,2.23c1.31,0.95 2.44,1.79 4.79,1.79c2.34,0 3.47,-0.83 4.79,-1.79c1.43,-1.04 3.04,-2.23 6.17,-2.23c3.13,0 4.74,1.18 6.17,2.23c1.3,0.95 2.43,1.79 4.79,1.79s3.47,-0.83 4.78,-1.79c1.43,-1.04 3.04,-2.23 6.17,-2.23s4.76,1.18 6.18,2.23c1.3,0.95 2.43,1.79 4.78,1.79c2.34,0 3.47,-0.83 4.79,-1.79c1.43,-1.04 3.04,-2.23 6.17,-2.23s4.74,1.18 6.17,2.23c1.3,0.95 2.43,1.79 4.78,1.79c2.34,0 3.48,-0.83 4.79,-1.79c1.43,-1.04 3.04,-2.23 6.17,-2.23c3.13,0 4.74,1.18 6.17,2.23c1.3,0.95 2.43,1.79 4.79,1.79c2.34,0 3.48,-0.83 4.79,-1.79c1.43,-1.04 3.04,-2.23 6.17,-2.23c3.13,0 4.74,1.18 6.17,2.23c1.3,0.95 2.43,1.79 4.79,1.79c2.34,0 3.47,-0.83 4.78,-1.79c1.43,-1.04 3.05,-2.23 6.18,-2.23c3.13,0 4.74,1.18 6.17,2.23c1.3,0.95 2.43,1.79 4.79,1.79l0,2.01z" fill="#1F2024" id="XMLID_127_"/>
      </g>
     </g>
     <g id="XMLID_60_">
      <g id="XMLID_2931_">
       <g id="XMLID_310_">
        <rect fill="#FFFFFF" height="50.65" id="XMLID_1335_" width="137.67" x="488.87" y="325.84"/>
       </g>
       <g id="XMLID_311_">
        <path d="m627.09,376.99l-138.79,0l0,-51.65l138.79,0l0,51.65zm-137.67,-1l136.57,0l0,-49.65l-136.57,0l0,49.65z" fill="#1F2024" id="XMLID_129_"/>
       </g>
      </g>
      <g id="XMLID_2930_">
       <g id="XMLID_306_">
        <rect fill="#FED9CA" height="122.5" id="XMLID_1334_" width="116.18" x="499.62" y="203.33"/>
       </g>
       <g id="XMLID_307_">
        <path d="m616.35,326.34l-117.3,0l0,-123.52l117.3,0l0,123.52zm-116.18,-1l115.08,0l0,-121.51l-115.08,0l0,121.51z" fill="#1F2024" id="XMLID_130_"/>
       </g>
      </g>
      <g id="XMLID_2929_">
       <g id="XMLID_260_">
        <rect fill="#FFFFFF" height="24.97" id="XMLID_1333_" width="66.04" x="524.69" y="178.35"/>
       </g>
       <g id="XMLID_303_">
        <path d="m591.28,203.83l-67.15,0l0,-25.98l67.15,0l0,25.98zm-66.05,-1l64.93,0l0,-23.97l-64.93,0l0,23.97z" fill="#1F2024" id="XMLID_131_"/>
       </g>
      </g>
      <g id="XMLID_3000_">
       <g id="XMLID_2846_">
        <g id="XMLID_302_">
         <rect fill="#FFD500" height="8.74" id="XMLID_1084_" width="4.13" x="514.9" y="217.2"/>
         <path d="m519.58,226.44l-5.24,0l0,-9.74l5.24,0l0,9.74zm-4.14,-1l3.03,0l0,-7.74l-3.03,0l0,7.74z" fill="#1F2024" id="XMLID_1085_"/>
        </g>
        <g id="XMLID_301_">
         <rect fill="#FFD500" height="8.74" id="XMLID_1080_" width="4.13" x="531.42" y="217.2"/>
         <path d="m536.09,226.44l-5.23,0l0,-9.74l5.23,0l0,9.74zm-4.13,-1l3.02,0l0,-7.74l-3.02,0l0,7.74z" fill="#1F2024" id="XMLID_1081_"/>
        </g>
        <g id="XMLID_300_">
         <rect fill="#FFD500" height="8.74" id="XMLID_1076_" width="4.13" x="547.93" y="217.2"/>
         <path d="m552.6,226.44l-5.24,0l0,-9.74l5.24,0l0,9.74zm-4.14,-1l3.02,0l0,-7.74l-3.02,0l0,7.74z" fill="#1F2024" id="XMLID_1077_"/>
        </g>
        <g id="XMLID_299_">
         <rect fill="#FFD500" height="8.74" id="XMLID_1072_" width="4.13" x="564.43" y="217.2"/>
         <path d="m569.12,226.44l-5.23,0l0,-9.74l5.23,0l0,9.74zm-4.13,-1l3.02,0l0,-7.74l-3.02,0l0,7.74z" fill="#1F2024" id="XMLID_1073_"/>
        </g>
        <g id="XMLID_298_">
         <rect fill="#FFD500" height="8.74" id="XMLID_1068_" width="4.13" x="580.94" y="217.2"/>
         <path d="m585.62,226.44l-5.23,0l0,-9.74l5.23,0l0,9.74zm-4.13,-1l3.02,0l0,-7.74l-3.02,0l0,7.74z" fill="#1F2024" id="XMLID_1069_"/>
        </g>
        <g id="XMLID_297_">
         <rect fill="#FFD500" height="8.74" id="XMLID_1064_" width="4.13" x="597.45" y="217.2"/>
         <path d="m602.13,226.44l-5.23,0l0,-9.74l5.23,0l0,9.74zm-4.13,-1l3.02,0l0,-7.74l-3.02,0l0,7.74z" fill="#1F2024" id="XMLID_1065_"/>
        </g>
       </g>
       <g id="XMLID_2834_">
        <g id="XMLID_296_">
         <rect fill="#FFD500" height="8.74" id="XMLID_1060_" width="4.13" x="514.9" y="240.45"/>
         <path d="m519.58,249.69l-5.24,0l0,-9.74l5.24,0l0,9.74zm-4.14,-1l3.03,0l0,-7.74l-3.03,0l0,7.74z" fill="#1F2024" id="XMLID_1061_"/>
        </g>
        <g id="XMLID_295_">
         <rect fill="#FFD500" height="8.74" id="XMLID_1056_" width="4.13" x="531.42" y="240.45"/>
         <path d="m536.09,249.69l-5.23,0l0,-9.74l5.23,0l0,9.74zm-4.13,-1l3.02,0l0,-7.74l-3.02,0l0,7.74z" fill="#1F2024" id="XMLID_1057_"/>
        </g>
        <g id="XMLID_294_">
         <rect fill="#FFD500" height="8.74" id="XMLID_1052_" width="4.13" x="547.93" y="240.45"/>
         <path d="m552.6,249.69l-5.24,0l0,-9.74l5.24,0l0,9.74zm-4.14,-1l3.02,0l0,-7.74l-3.02,0l0,7.74z" fill="#1F2024" id="XMLID_1053_"/>
        </g>
        <g id="XMLID_293_">
         <rect fill="#FFD500" height="8.74" id="XMLID_1048_" width="4.13" x="564.43" y="240.45"/>
         <path d="m569.12,249.69l-5.23,0l0,-9.74l5.23,0l0,9.74zm-4.13,-1l3.02,0l0,-7.74l-3.02,0l0,7.74z" fill="#1F2024" id="XMLID_1049_"/>
        </g>
        <g id="XMLID_292_">
         <rect fill="#FFD500" height="8.74" id="XMLID_1044_" width="4.13" x="580.94" y="240.45"/>
         <path d="m585.62,249.69l-5.23,0l0,-9.74l5.23,0l0,9.74zm-4.13,-1l3.02,0l0,-7.74l-3.02,0l0,7.74z" fill="#1F2024" id="XMLID_1045_"/>
        </g>
        <g id="XMLID_291_">
         <rect fill="#FFD500" height="8.74" id="XMLID_1040_" width="4.13" x="597.45" y="240.45"/>
         <path d="m602.13,249.69l-5.23,0l0,-9.74l5.23,0l0,9.74zm-4.13,-1l3.02,0l0,-7.74l-3.02,0l0,7.74z" fill="#1F2024" id="XMLID_1041_"/>
        </g>
       </g>
       <g id="XMLID_2822_">
        <g id="XMLID_290_">
         <rect fill="#FFD500" height="8.74" id="XMLID_1036_" width="4.13" x="514.9" y="263.32"/>
         <path d="m519.58,272.56l-5.24,0l0,-9.74l5.24,0l0,9.74zm-4.14,-1l3.03,0l0,-7.74l-3.03,0l0,7.74z" fill="#1F2024" id="XMLID_1037_"/>
        </g>
        <g id="XMLID_289_">
         <rect fill="#FFD500" height="8.74" id="XMLID_1032_" width="4.13" x="531.42" y="263.32"/>
         <path d="m536.09,272.56l-5.23,0l0,-9.74l5.23,0l0,9.74zm-4.13,-1l3.02,0l0,-7.74l-3.02,0l0,7.74z" fill="#1F2024" id="XMLID_1033_"/>
        </g>
        <g id="XMLID_288_">
         <rect fill="#FFD500" height="8.74" id="XMLID_1028_" width="4.13" x="547.93" y="263.32"/>
         <path d="m552.6,272.56l-5.24,0l0,-9.74l5.24,0l0,9.74zm-4.14,-1l3.02,0l0,-7.74l-3.02,0l0,7.74z" fill="#1F2024" id="XMLID_1029_"/>
        </g>
        <g id="XMLID_287_">
         <rect fill="#FFD500" height="8.74" id="XMLID_1024_" width="4.13" x="564.43" y="263.32"/>
         <path d="m569.12,272.56l-5.23,0l0,-9.74l5.23,0l0,9.74zm-4.13,-1l3.02,0l0,-7.74l-3.02,0l0,7.74z" fill="#1F2024" id="XMLID_1025_"/>
        </g>
        <g id="XMLID_286_">
         <rect fill="#FFD500" height="8.74" id="XMLID_1020_" width="4.13" x="580.94" y="263.32"/>
         <path d="m585.62,272.56l-5.23,0l0,-9.74l5.23,0l0,9.74zm-4.13,-1l3.02,0l0,-7.74l-3.02,0l0,7.74z" fill="#1F2024" id="XMLID_1021_"/>
        </g>
        <g id="XMLID_285_">
         <rect fill="#FFD500" height="8.74" id="XMLID_1016_" width="4.13" x="597.45" y="263.32"/>
         <path d="m602.13,272.56l-5.23,0l0,-9.74l5.23,0l0,9.74zm-4.13,-1l3.02,0l0,-7.74l-3.02,0l0,7.74z" fill="#1F2024" id="XMLID_1017_"/>
        </g>
       </g>
       <g id="XMLID_2810_">
        <g id="XMLID_284_">
         <rect fill="#FFD500" height="8.74" id="XMLID_1012_" width="4.13" x="514.9" y="286.57"/>
         <path d="m519.58,295.81l-5.24,0l0,-9.74l5.24,0l0,9.74zm-4.14,-1l3.03,0l0,-7.74l-3.03,0l0,7.74z" fill="#1F2024" id="XMLID_1013_"/>
        </g>
        <g id="XMLID_283_">
         <rect fill="#FFD500" height="8.74" id="XMLID_1008_" width="4.13" x="531.42" y="286.57"/>
         <path d="m536.09,295.81l-5.23,0l0,-9.74l5.23,0l0,9.74zm-4.13,-1l3.02,0l0,-7.74l-3.02,0l0,7.74z" fill="#1F2024" id="XMLID_1009_"/>
        </g>
        <g id="XMLID_282_">
         <rect fill="#FFD500" height="8.74" id="XMLID_1004_" width="4.13" x="547.93" y="286.57"/>
         <path d="m552.6,295.81l-5.24,0l0,-9.74l5.24,0l0,9.74zm-4.14,-1l3.02,0l0,-7.74l-3.02,0l0,7.74z" fill="#1F2024" id="XMLID_1005_"/>
        </g>
        <g id="XMLID_281_">
         <rect fill="#FFD500" height="8.74" id="XMLID_1000_" width="4.13" x="564.43" y="286.57"/>
         <path d="m569.12,295.81l-5.23,0l0,-9.74l5.23,0l0,9.74zm-4.13,-1l3.02,0l0,-7.74l-3.02,0l0,7.74z" fill="#1F2024" id="XMLID_1001_"/>
        </g>
        <g id="XMLID_280_">
         <rect fill="#FFD500" height="8.74" id="XMLID_996_" width="4.13" x="580.94" y="286.57"/>
         <path d="m585.62,295.81l-5.23,0l0,-9.74l5.23,0l0,9.74zm-4.13,-1l3.02,0l0,-7.74l-3.02,0l0,7.74z" fill="#1F2024" id="XMLID_997_"/>
        </g>
        <g id="XMLID_279_">
         <rect fill="#FFD500" height="8.74" id="XMLID_992_" width="4.13" x="597.45" y="286.57"/>
         <path d="m602.13,295.81l-5.23,0l0,-9.74l5.23,0l0,9.74zm-4.13,-1l3.02,0l0,-7.74l-3.02,0l0,7.74z" fill="#1F2024" id="XMLID_993_"/>
        </g>
       </g>
       <g id="XMLID_2798_">
        <g id="XMLID_278_">
         <rect fill="#FFD500" height="8.74" id="XMLID_988_" width="4.13" x="514.9" y="311.61"/>
         <path d="m519.58,320.85l-5.24,0l0,-9.74l5.24,0l0,9.74zm-4.14,-1l3.03,0l0,-7.74l-3.03,0l0,7.74z" fill="#1F2024" id="XMLID_989_"/>
        </g>
        <g id="XMLID_277_">
         <rect fill="#FFD500" height="8.74" id="XMLID_984_" width="4.13" x="531.42" y="311.61"/>
         <path d="m536.09,320.85l-5.23,0l0,-9.74l5.23,0l0,9.74zm-4.13,-1l3.02,0l0,-7.74l-3.02,0l0,7.74z" fill="#1F2024" id="XMLID_985_"/>
        </g>
        <g id="XMLID_276_">
         <rect fill="#FFD500" height="8.74" id="XMLID_980_" width="4.13" x="547.93" y="311.61"/>
         <path d="m552.6,320.85l-5.24,0l0,-9.74l5.24,0l0,9.74zm-4.14,-1l3.02,0l0,-7.74l-3.02,0l0,7.74z" fill="#1F2024" id="XMLID_981_"/>
        </g>
        <g id="XMLID_275_">
         <rect fill="#FFD500" height="8.74" id="XMLID_976_" width="4.13" x="564.43" y="311.61"/>
         <path d="m569.12,320.85l-5.23,0l0,-9.74l5.23,0l0,9.74zm-4.13,-1l3.02,0l0,-7.74l-3.02,0l0,7.74z" fill="#1F2024" id="XMLID_977_"/>
        </g>
        <g id="XMLID_274_">
         <rect fill="#FFD500" height="8.74" id="XMLID_972_" width="4.13" x="580.94" y="311.61"/>
         <path d="m585.62,320.85l-5.23,0l0,-9.74l5.23,0l0,9.74zm-4.13,-1l3.02,0l0,-7.74l-3.02,0l0,7.74z" fill="#1F2024" id="XMLID_973_"/>
        </g>
        <g id="XMLID_273_">
         <rect fill="#FFD500" height="8.74" id="XMLID_968_" width="4.13" x="597.45" y="311.61"/>
         <path d="m602.13,320.85l-5.23,0l0,-9.74l5.23,0l0,9.74zm-4.13,-1l3.02,0l0,-7.74l-3.02,0l0,7.74z" fill="#1F2024" id="XMLID_969_"/>
        </g>
       </g>
      </g>
      <g id="XMLID_2786_">
       <g id="XMLID_272_">
        <rect fill="#4396D5" height="8.74" id="XMLID_964_" width="4.13" x="514.9" y="334.86"/>
        <path d="m519.58,344.1l-5.24,0l0,-9.75l5.24,0l0,9.75zm-4.14,-1l3.03,0l0,-7.75l-3.03,0l0,7.75z" fill="#1F2024" id="XMLID_965_"/>
       </g>
       <g id="XMLID_271_">
        <rect fill="#4396D5" height="8.74" id="XMLID_960_" width="4.13" x="531.42" y="334.86"/>
        <path d="m536.09,344.1l-5.23,0l0,-9.75l5.23,0l0,9.75zm-4.13,-1l3.02,0l0,-7.75l-3.02,0l0,7.75z" fill="#1F2024" id="XMLID_961_"/>
       </g>
       <g id="XMLID_270_">
        <rect fill="#4396D5" height="8.74" id="XMLID_956_" width="4.13" x="547.93" y="334.86"/>
        <path d="m552.6,344.1l-5.24,0l0,-9.75l5.24,0l0,9.75zm-4.14,-1l3.02,0l0,-7.75l-3.02,0l0,7.75z" fill="#1F2024" id="XMLID_957_"/>
       </g>
       <g id="XMLID_269_">
        <rect fill="#4396D5" height="8.74" id="XMLID_952_" width="4.13" x="564.43" y="334.86"/>
        <path d="m569.12,344.1l-5.23,0l0,-9.75l5.23,0l0,9.75zm-4.13,-1l3.02,0l0,-7.75l-3.02,0l0,7.75z" fill="#1F2024" id="XMLID_953_"/>
       </g>
       <g id="XMLID_268_">
        <rect fill="#4396D5" height="8.74" id="XMLID_948_" width="4.13" x="580.94" y="334.86"/>
        <path d="m585.62,344.1l-5.23,0l0,-9.75l5.23,0l0,9.75zm-4.13,-1l3.02,0l0,-7.75l-3.02,0l0,7.75z" fill="#1F2024" id="XMLID_949_"/>
       </g>
       <g id="XMLID_267_">
        <rect fill="#4396D5" height="8.74" id="XMLID_944_" width="4.13" x="597.45" y="334.86"/>
        <path d="m602.13,344.1l-5.23,0l0,-9.75l5.23,0l0,9.75zm-4.13,-1l3.02,0l0,-7.75l-3.02,0l0,7.75z" fill="#1F2024" id="XMLID_945_"/>
       </g>
      </g>
      <g id="XMLID_2774_">
       <g id="XMLID_266_">
        <rect fill="#4396D5" height="8.74" id="XMLID_940_" width="4.13" x="514.9" y="354.16"/>
        <path d="m519.58,363.4l-5.24,0l0,-9.74l5.24,0l0,9.74zm-4.14,-1l3.03,0l0,-7.74l-3.03,0l0,7.74z" fill="#1F2024" id="XMLID_941_"/>
       </g>
       <g id="XMLID_265_">
        <rect fill="#4396D5" height="8.74" id="XMLID_936_" width="4.13" x="531.42" y="354.16"/>
        <path d="m536.09,363.4l-5.23,0l0,-9.74l5.23,0l0,9.74zm-4.13,-1l3.02,0l0,-7.74l-3.02,0l0,7.74z" fill="#1F2024" id="XMLID_937_"/>
       </g>
       <g id="XMLID_264_">
        <rect fill="#4396D5" height="8.74" id="XMLID_932_" width="4.13" x="547.93" y="354.16"/>
        <path d="m552.6,363.4l-5.24,0l0,-9.74l5.24,0l0,9.74zm-4.14,-1l3.02,0l0,-7.74l-3.02,0l0,7.74z" fill="#1F2024" id="XMLID_933_"/>
       </g>
       <g id="XMLID_263_">
        <rect fill="#4396D5" height="8.74" id="XMLID_928_" width="4.13" x="564.43" y="354.16"/>
        <path d="m569.12,363.4l-5.23,0l0,-9.74l5.23,0l0,9.74zm-4.13,-1l3.02,0l0,-7.74l-3.02,0l0,7.74z" fill="#1F2024" id="XMLID_929_"/>
       </g>
       <g id="XMLID_262_">
        <rect fill="#4396D5" height="8.74" id="XMLID_924_" width="4.13" x="580.94" y="354.16"/>
        <path d="m585.62,363.4l-5.23,0l0,-9.74l5.23,0l0,9.74zm-4.13,-1l3.02,0l0,-7.74l-3.02,0l0,7.74z" fill="#1F2024" id="XMLID_925_"/>
       </g>
       <g id="XMLID_261_">
        <rect fill="#4396D5" height="8.74" id="XMLID_914_" width="4.13" x="597.45" y="354.16"/>
        <path d="m602.13,363.4l-5.23,0l0,-9.74l5.23,0l0,9.74zm-4.13,-1l3.02,0l0,-7.74l-3.02,0l0,7.74z" fill="#1F2024" id="XMLID_921_"/>
       </g>
      </g>
      <g id="XMLID_2773_">
       <g id="XMLID_256_">
        <rect fill="#1F2024" height="6.1" id="XMLID_1359_" width="5.2" x="531.72" y="172.25"/>
       </g>
       <g id="XMLID_257_">
        <path d="m537.47,178.85l-6.3,0l0,-7.1l6.3,0l0,7.1zm-5.2,-1l4.1,0l0,-5.1l-4.1,0l0,5.1z" fill="#1F2024" id="XMLID_132_"/>
       </g>
      </g>
      <g id="XMLID_2772_">
       <g id="XMLID_246_">
        <rect fill="#1F2024" height="6.1" id="XMLID_1358_" width="5.2" x="540.89" y="172.25"/>
       </g>
       <g id="XMLID_253_">
        <path d="m546.64,178.85l-6.3,0l0,-7.1l6.3,0l0,7.1zm-5.2,-1l4.1,0l0,-5.1l-4.1,0l0,5.1z" fill="#1F2024" id="XMLID_133_"/>
       </g>
      </g>
      <g id="XMLID_2761_">
       <g id="XMLID_252_">
        <rect fill="#1F2024" height="13.6" id="XMLID_920_" width="1.1" x="531.16" y="183.9"/>
       </g>
       <g id="XMLID_251_">
        <rect fill="#1F2024" height="13.6" id="XMLID_919_" width="1.1" x="541.56" y="183.9"/>
       </g>
       <g id="XMLID_250_">
        <rect fill="#1F2024" height="13.6" id="XMLID_918_" width="1.1" x="551.95" y="183.9"/>
       </g>
       <g id="XMLID_249_">
        <rect fill="#1F2024" height="13.6" id="XMLID_917_" width="1.1" x="562.35" y="183.9"/>
       </g>
       <g id="XMLID_248_">
        <rect fill="#1F2024" height="13.6" id="XMLID_916_" width="1.1" x="572.75" y="183.9"/>
       </g>
       <g id="XMLID_247_">
        <rect fill="#1F2024" height="13.6" id="XMLID_915_" width="1.1" x="583.14" y="183.9"/>
       </g>
      </g>
     </g>
     <g id="XMLID_69_">
      <g id="XMLID_2928_">
       <g id="XMLID_239_">
        <rect fill="#1F2024" height="134.79" id="XMLID_1332_" width="66.96" x="615.8" y="241.71"/>
       </g>
       <g id="XMLID_243_">
        <path d="m683.31,376.99l-68.06,0l0,-135.79l68.06,0l0,135.79zm-66.96,-1l65.85,0l0,-133.78l-65.85,0l0,133.78z" fill="#1F2024" id="XMLID_135_"/>
       </g>
      </g>
      <g id="XMLID_2927_">
       <g id="XMLID_240_">
        <path d="m666.19,242.21l-34.13,0l0,-25.51l34.13,0l0,25.51zm-33.02,-1l31.92,0l0,-23.5l-31.92,0l0,23.5z" fill="#1F2024" id="XMLID_136_"/>
       </g>
      </g>
      <g id="XMLID_2926_">
       <g id="XMLID_187_">
        <polygon fill="#FED9CA" id="XMLID_137_" points="649.1203573348175,175.0240478515625 641.1708682642638,217.20477294921875 657.0687464091898,217.20477294921875 "/>
       </g>
       <g id="XMLID_236_">
        <path d="m657.72,217.7l-17.21,0l8.6,-45.65l8.61,45.65zm-15.9,-1l14.58,0l-7.3,-38.7l-7.29,38.7z" fill="#1F2024" id="XMLID_138_"/>
       </g>
      </g>
      <g id="XMLID_3001_">
       <g id="XMLID_2749_">
        <g id="XMLID_235_">
         <rect fill="#FFD500" height="7.37" id="XMLID_910_" width="2.32" x="628.17" y="255.06"/>
         <path d="m630.63,262.57l-2.6,0l0,-7.64l2.6,0l0,7.64zm-2.32,-0.25l2.05,0l0,-7.13l-2.05,0l0,7.13z" fill="#1F2024" id="XMLID_911_"/>
        </g>
        <g id="XMLID_234_">
         <rect fill="#FFD500" height="7.37" id="XMLID_906_" width="2.32" x="636.31" y="255.06"/>
         <path d="m638.76,262.57l-2.6,0l0,-7.64l2.6,0l0,7.64zm-2.32,-0.25l2.04,0l0,-7.13l-2.04,0l0,7.13z" fill="#1F2024" id="XMLID_907_"/>
        </g>
        <g id="XMLID_233_">
         <rect fill="#FFD500" height="7.37" id="XMLID_902_" width="2.32" x="644.44" y="255.06"/>
         <path d="m646.89,262.57l-2.6,0l0,-7.64l2.6,0l0,7.64zm-2.32,-0.25l2.05,0l0,-7.13l-2.05,0l0,7.13z" fill="#1F2024" id="XMLID_903_"/>
        </g>
        <g id="XMLID_232_">
         <rect fill="#FFD500" height="7.37" id="XMLID_898_" width="2.32" x="652.56" y="255.06"/>
         <path d="m655.01,262.57l-2.6,0l0,-7.64l2.6,0l0,7.64zm-2.32,-0.25l2.05,0l0,-7.13l-2.05,0l0,7.13z" fill="#1F2024" id="XMLID_899_"/>
        </g>
        <g id="XMLID_231_">
         <rect fill="#FFD500" height="7.37" id="XMLID_894_" width="2.32" x="660.69" y="255.06"/>
         <path d="m663.14,262.57l-2.6,0l0,-7.64l2.6,0l0,7.64zm-2.32,-0.25l2.05,0l0,-7.13l-2.05,0l0,7.13z" fill="#1F2024" id="XMLID_895_"/>
        </g>
        <g id="XMLID_230_">
         <rect fill="#FFD500" height="7.37" id="XMLID_890_" width="2.32" x="668.82" y="255.06"/>
         <path d="m671.27,262.57l-2.6,0l0,-7.64l2.6,0l0,7.64zm-2.32,-0.25l2.05,0l0,-7.13l-2.05,0l0,7.13z" fill="#1F2024" id="XMLID_891_"/>
        </g>
       </g>
       <g id="XMLID_2737_">
        <g id="XMLID_229_">
         <rect fill="#FFD500" height="7.37" id="XMLID_886_" width="2.32" x="628.17" y="270.95"/>
         <path d="m630.63,278.46l-2.6,0l0,-7.63l2.6,0l0,7.63zm-2.32,-0.25l2.05,0l0,-7.12l-2.05,0l0,7.12z" fill="#1F2024" id="XMLID_887_"/>
        </g>
        <g id="XMLID_228_">
         <rect fill="#FFD500" height="7.37" id="XMLID_882_" width="2.32" x="636.31" y="270.95"/>
         <path d="m638.76,278.46l-2.6,0l0,-7.63l2.6,0l0,7.63zm-2.32,-0.25l2.04,0l0,-7.12l-2.04,0l0,7.12z" fill="#1F2024" id="XMLID_883_"/>
        </g>
        <g id="XMLID_227_">
         <rect fill="#FFD500" height="7.37" id="XMLID_878_" width="2.32" x="644.44" y="270.95"/>
         <path d="m646.89,278.46l-2.6,0l0,-7.63l2.6,0l0,7.63zm-2.32,-0.25l2.05,0l0,-7.12l-2.05,0l0,7.12z" fill="#1F2024" id="XMLID_879_"/>
        </g>
        <g id="XMLID_226_">
         <rect fill="#FFD500" height="7.37" id="XMLID_874_" width="2.32" x="652.56" y="270.95"/>
         <path d="m655.01,278.46l-2.6,0l0,-7.63l2.6,0l0,7.63zm-2.32,-0.25l2.05,0l0,-7.12l-2.05,0l0,7.12z" fill="#1F2024" id="XMLID_875_"/>
        </g>
        <g id="XMLID_225_">
         <rect fill="#FFD500" height="7.37" id="XMLID_870_" width="2.32" x="660.69" y="270.95"/>
         <path d="m663.14,278.46l-2.6,0l0,-7.63l2.6,0l0,7.63zm-2.32,-0.25l2.05,0l0,-7.12l-2.05,0l0,7.12z" fill="#1F2024" id="XMLID_871_"/>
        </g>
        <g id="XMLID_224_">
         <rect fill="#FFD500" height="7.37" id="XMLID_866_" width="2.32" x="668.82" y="270.95"/>
         <path d="m671.27,278.46l-2.6,0l0,-7.63l2.6,0l0,7.63zm-2.32,-0.25l2.05,0l0,-7.12l-2.05,0l0,7.12z" fill="#1F2024" id="XMLID_867_"/>
        </g>
       </g>
       <g id="XMLID_2725_">
        <g id="XMLID_223_">
         <rect fill="#FFD500" height="7.37" id="XMLID_862_" width="2.32" x="628.17" y="286.58"/>
         <path d="m630.63,294.08l-2.6,0l0,-7.63l2.6,0l0,7.63zm-2.32,-0.25l2.05,0l0,-7.12l-2.05,0l0,7.12z" fill="#1F2024" id="XMLID_863_"/>
        </g>
        <g id="XMLID_222_">
         <rect fill="#FFD500" height="7.37" id="XMLID_858_" width="2.32" x="636.31" y="286.58"/>
         <path d="m638.76,294.08l-2.6,0l0,-7.63l2.6,0l0,7.63zm-2.32,-0.25l2.04,0l0,-7.12l-2.04,0l0,7.12z" fill="#1F2024" id="XMLID_859_"/>
        </g>
        <g id="XMLID_221_">
         <rect fill="#FFD500" height="7.37" id="XMLID_854_" width="2.32" x="644.44" y="286.58"/>
         <path d="m646.89,294.08l-2.6,0l0,-7.63l2.6,0l0,7.63zm-2.32,-0.25l2.05,0l0,-7.12l-2.05,0l0,7.12z" fill="#1F2024" id="XMLID_855_"/>
        </g>
        <g id="XMLID_220_">
         <rect fill="#FFD500" height="7.37" id="XMLID_850_" width="2.32" x="652.56" y="286.58"/>
         <path d="m655.01,294.08l-2.6,0l0,-7.63l2.6,0l0,7.63zm-2.32,-0.25l2.05,0l0,-7.12l-2.05,0l0,7.12z" fill="#1F2024" id="XMLID_851_"/>
        </g>
        <g id="XMLID_219_">
         <rect fill="#FFD500" height="7.37" id="XMLID_846_" width="2.32" x="660.69" y="286.58"/>
         <path d="m663.14,294.08l-2.6,0l0,-7.63l2.6,0l0,7.63zm-2.32,-0.25l2.05,0l0,-7.12l-2.05,0l0,7.12z" fill="#1F2024" id="XMLID_847_"/>
        </g>
        <g id="XMLID_218_">
         <rect fill="#FFD500" height="7.37" id="XMLID_842_" width="2.32" x="668.82" y="286.58"/>
         <path d="m671.27,294.08l-2.6,0l0,-7.63l2.6,0l0,7.63zm-2.32,-0.25l2.05,0l0,-7.12l-2.05,0l0,7.12z" fill="#1F2024" id="XMLID_843_"/>
        </g>
       </g>
       <g id="XMLID_2713_">
        <g id="XMLID_217_">
         <rect fill="#FFD500" height="7.37" id="XMLID_838_" width="2.32" x="628.17" y="302.48"/>
         <path d="m630.63,309.99l-2.6,0l0,-7.64l2.6,0l0,7.64zm-2.32,-0.25l2.05,0l0,-7.13l-2.05,0l0,7.13z" fill="#1F2024" id="XMLID_839_"/>
        </g>
        <g id="XMLID_216_">
         <rect fill="#FFD500" height="7.37" id="XMLID_834_" width="2.32" x="636.31" y="302.48"/>
         <path d="m638.76,309.99l-2.6,0l0,-7.64l2.6,0l0,7.64zm-2.32,-0.25l2.04,0l0,-7.13l-2.04,0l0,7.13z" fill="#1F2024" id="XMLID_835_"/>
        </g>
        <g id="XMLID_215_">
         <rect fill="#FFD500" height="7.37" id="XMLID_830_" width="2.32" x="644.44" y="302.48"/>
         <path d="m646.89,309.99l-2.6,0l0,-7.64l2.6,0l0,7.64zm-2.32,-0.25l2.05,0l0,-7.13l-2.05,0l0,7.13z" fill="#1F2024" id="XMLID_831_"/>
        </g>
        <g id="XMLID_214_">
         <rect fill="#FFD500" height="7.37" id="XMLID_826_" width="2.32" x="652.56" y="302.48"/>
         <path d="m655.01,309.99l-2.6,0l0,-7.64l2.6,0l0,7.64zm-2.32,-0.25l2.05,0l0,-7.13l-2.05,0l0,7.13z" fill="#1F2024" id="XMLID_827_"/>
        </g>
        <g id="XMLID_213_">
         <rect fill="#FFD500" height="7.37" id="XMLID_822_" width="2.32" x="660.69" y="302.48"/>
         <path d="m663.14,309.99l-2.6,0l0,-7.64l2.6,0l0,7.64zm-2.32,-0.25l2.05,0l0,-7.13l-2.05,0l0,7.13z" fill="#1F2024" id="XMLID_823_"/>
        </g>
        <g id="XMLID_212_">
         <rect fill="#FFD500" height="7.37" id="XMLID_818_" width="2.32" x="668.82" y="302.48"/>
         <path d="m671.27,309.99l-2.6,0l0,-7.64l2.6,0l0,7.64zm-2.32,-0.25l2.05,0l0,-7.13l-2.05,0l0,7.13z" fill="#1F2024" id="XMLID_819_"/>
        </g>
       </g>
       <g id="XMLID_2701_">
        <g id="XMLID_211_">
         <rect fill="#FFD500" height="7.37" id="XMLID_814_" width="2.32" x="628.17" y="318.38"/>
         <path d="m630.63,325.88l-2.6,0l0,-7.63l2.6,0l0,7.63zm-2.32,-0.25l2.05,0l0,-7.12l-2.05,0l0,7.12z" fill="#1F2024" id="XMLID_815_"/>
        </g>
        <g id="XMLID_210_">
         <rect fill="#FFD500" height="7.37" id="XMLID_810_" width="2.32" x="636.31" y="318.38"/>
         <path d="m638.76,325.88l-2.6,0l0,-7.63l2.6,0l0,7.63zm-2.32,-0.25l2.04,0l0,-7.12l-2.04,0l0,7.12z" fill="#1F2024" id="XMLID_811_"/>
        </g>
        <g id="XMLID_209_">
         <rect fill="#FFD500" height="7.37" id="XMLID_806_" width="2.32" x="644.44" y="318.38"/>
         <path d="m646.89,325.88l-2.6,0l0,-7.63l2.6,0l0,7.63zm-2.32,-0.25l2.05,0l0,-7.12l-2.05,0l0,7.12z" fill="#1F2024" id="XMLID_807_"/>
        </g>
        <g id="XMLID_208_">
         <rect fill="#FFD500" height="7.37" id="XMLID_802_" width="2.32" x="652.56" y="318.38"/>
         <path d="m655.01,325.88l-2.6,0l0,-7.63l2.6,0l0,7.63zm-2.32,-0.25l2.05,0l0,-7.12l-2.05,0l0,7.12z" fill="#1F2024" id="XMLID_803_"/>
        </g>
        <g id="XMLID_207_">
         <rect fill="#FFD500" height="7.37" id="XMLID_798_" width="2.32" x="660.69" y="318.38"/>
         <path d="m663.14,325.88l-2.6,0l0,-7.63l2.6,0l0,7.63zm-2.32,-0.25l2.05,0l0,-7.12l-2.05,0l0,7.12z" fill="#1F2024" id="XMLID_799_"/>
        </g>
        <g id="XMLID_206_">
         <rect fill="#FFD500" height="7.37" id="XMLID_794_" width="2.32" x="668.82" y="318.38"/>
         <path d="m671.27,325.88l-2.6,0l0,-7.63l2.6,0l0,7.63zm-2.32,-0.25l2.05,0l0,-7.12l-2.05,0l0,7.12z" fill="#1F2024" id="XMLID_795_"/>
        </g>
       </g>
       <g id="XMLID_2689_">
        <g id="XMLID_205_">
         <rect fill="#FFD500" height="7.37" id="XMLID_790_" width="2.32" x="628.17" y="334"/>
         <path d="m630.63,341.5l-2.6,0l0,-7.63l2.6,0l0,7.63zm-2.32,-0.25l2.05,0l0,-7.12l-2.05,0l0,7.12z" fill="#1F2024" id="XMLID_791_"/>
        </g>
        <g id="XMLID_204_">
         <rect fill="#FFD500" height="7.37" id="XMLID_786_" width="2.32" x="636.31" y="334"/>
         <path d="m638.76,341.5l-2.6,0l0,-7.63l2.6,0l0,7.63zm-2.32,-0.25l2.04,0l0,-7.12l-2.04,0l0,7.12z" fill="#1F2024" id="XMLID_787_"/>
        </g>
        <g id="XMLID_203_">
         <rect fill="#FFD500" height="7.37" id="XMLID_782_" width="2.32" x="644.44" y="334"/>
         <path d="m646.89,341.5l-2.6,0l0,-7.63l2.6,0l0,7.63zm-2.32,-0.25l2.05,0l0,-7.12l-2.05,0l0,7.12z" fill="#1F2024" id="XMLID_783_"/>
        </g>
        <g id="XMLID_202_">
         <rect fill="#FFD500" height="7.37" id="XMLID_778_" width="2.32" x="652.56" y="334"/>
         <path d="m655.01,341.5l-2.6,0l0,-7.63l2.6,0l0,7.63zm-2.32,-0.25l2.05,0l0,-7.12l-2.05,0l0,7.12z" fill="#1F2024" id="XMLID_779_"/>
        </g>
        <g id="XMLID_201_">
         <rect fill="#FFD500" height="7.37" id="XMLID_774_" width="2.32" x="660.69" y="334"/>
         <path d="m663.14,341.5l-2.6,0l0,-7.63l2.6,0l0,7.63zm-2.32,-0.25l2.05,0l0,-7.12l-2.05,0l0,7.12z" fill="#1F2024" id="XMLID_775_"/>
        </g>
        <g id="XMLID_200_">
         <rect fill="#FFD500" height="7.37" id="XMLID_770_" width="2.32" x="668.82" y="334"/>
         <path d="m671.27,341.5l-2.6,0l0,-7.63l2.6,0l0,7.63zm-2.32,-0.25l2.05,0l0,-7.12l-2.05,0l0,7.12z" fill="#1F2024" id="XMLID_771_"/>
        </g>
       </g>
       <g id="XMLID_2677_">
        <g id="XMLID_199_">
         <rect fill="#FFD500" height="7.37" id="XMLID_766_" width="2.32" x="628.17" y="349.9"/>
         <path d="m630.63,357.4l-2.6,0l0,-7.63l2.6,0l0,7.63zm-2.32,-0.25l2.05,0l0,-7.12l-2.05,0l0,7.12z" fill="#1F2024" id="XMLID_767_"/>
        </g>
        <g id="XMLID_198_">
         <rect fill="#FFD500" height="7.37" id="XMLID_762_" width="2.32" x="636.31" y="349.9"/>
         <path d="m638.76,357.4l-2.6,0l0,-7.63l2.6,0l0,7.63zm-2.32,-0.25l2.04,0l0,-7.12l-2.04,0l0,7.12z" fill="#1F2024" id="XMLID_763_"/>
        </g>
        <g id="XMLID_197_">
         <rect fill="#FFD500" height="7.37" id="XMLID_758_" width="2.32" x="644.44" y="349.9"/>
         <path d="m646.89,357.4l-2.6,0l0,-7.63l2.6,0l0,7.63zm-2.32,-0.25l2.05,0l0,-7.12l-2.05,0l0,7.12z" fill="#1F2024" id="XMLID_759_"/>
        </g>
        <g id="XMLID_196_">
         <rect fill="#FFD500" height="7.37" id="XMLID_754_" width="2.32" x="652.56" y="349.9"/>
         <path d="m655.01,357.4l-2.6,0l0,-7.63l2.6,0l0,7.63zm-2.32,-0.25l2.05,0l0,-7.12l-2.05,0l0,7.12z" fill="#1F2024" id="XMLID_755_"/>
        </g>
        <g id="XMLID_195_">
         <rect fill="#FFD500" height="7.37" id="XMLID_750_" width="2.32" x="660.69" y="349.9"/>
         <path d="m663.14,357.4l-2.6,0l0,-7.63l2.6,0l0,7.63zm-2.32,-0.25l2.05,0l0,-7.12l-2.05,0l0,7.12z" fill="#1F2024" id="XMLID_751_"/>
        </g>
        <g id="XMLID_194_">
         <rect fill="#FFD500" height="7.37" id="XMLID_733_" width="2.32" x="668.82" y="349.9"/>
         <path d="m671.27,357.4l-2.6,0l0,-7.63l2.6,0l0,7.63zm-2.32,-0.25l2.05,0l0,-7.12l-2.05,0l0,7.12z" fill="#1F2024" id="XMLID_747_"/>
        </g>
       </g>
      </g>
      <g id="XMLID_2666_">
       <g id="XMLID_193_">
        <rect fill="#1F2024" height="0.5" id="XMLID_746_" width="26.29" x="635.97" y="236.93"/>
       </g>
       <g id="XMLID_192_">
        <rect fill="#1F2024" height="0.5" id="XMLID_745_" width="26.29" x="635.97" y="233.82"/>
       </g>
       <g id="XMLID_191_">
        <rect fill="#1F2024" height="0.5" id="XMLID_744_" width="26.29" x="635.97" y="230.7"/>
       </g>
       <g id="XMLID_190_">
        <rect fill="#1F2024" height="0.5" id="XMLID_743_" width="26.29" x="635.97" y="227.58"/>
       </g>
       <g id="XMLID_189_">
        <rect fill="#1F2024" height="0.5" id="XMLID_742_" width="26.29" x="635.97" y="224.47"/>
       </g>
       <g id="XMLID_188_">
        <rect fill="#1F2024" height="0.5" id="XMLID_741_" width="26.29" x="635.97" y="221.35"/>
       </g>
      </g>
     </g>
     <g id="XMLID_128_">
      <g id="XMLID_2922_">
       <g id="XMLID_2925_">
        <g id="XMLID_183_">
         <rect fill="#FED9CA" height="82.68" id="XMLID_1357_" width="123.52" x="683.03" y="293.81"/>
        </g>
        <g id="XMLID_184_">
         <path d="m807.1,376.99l-124.62,0l0,-83.68l124.62,0l0,83.68zm-123.52,-1l122.41,0l0,-81.68l-122.41,0l0,81.68z" fill="#1F2024" id="XMLID_141_"/>
        </g>
       </g>
       <g id="XMLID_2924_">
        <g id="XMLID_179_">
         <rect fill="#4396D5" height="44.6" id="XMLID_1331_" width="77.05" x="706.27" y="249.22"/>
        </g>
        <g id="XMLID_180_">
         <path d="m783.86,294.31l-78.16,0l0,-45.59l78.16,0l0,45.59zm-77.06,-1l75.94,0l0,-43.59l-75.94,0l0,43.59z" fill="#1F2024" id="XMLID_142_"/>
        </g>
       </g>
       <g id="XMLID_2923_">
        <g id="XMLID_175_">
         <polygon fill="#FFFFFF" id="XMLID_143_" points="762.2107814157353,202.11672973632812 744.7840919113078,190.84156799316406 727.3572190741834,202.11672973632812 727.3572190741834,249.2171173095703 762.2107814157353,249.2171173095703 "/>
        </g>
        <g id="XMLID_176_">
         <path d="m762.77,249.72l-35.96,0l0,-47.86l17.98,-11.63l17.99,11.63l0,47.86zm-34.86,-1l33.75,0l0,-46.35l-16.88,-10.92l-16.87,10.92l0,46.35l0.01,0z" fill="#1F2024" id="XMLID_144_"/>
        </g>
       </g>
      </g>
      <g id="XMLID_2662_">
       <g id="XMLID_2665_">
        <g id="XMLID_171_">
         <rect fill="#FFFFFF" height="30.51" id="XMLID_1356_" width="6.72" x="714.52" y="256.06"/>
        </g>
        <g id="XMLID_172_">
         <path d="m721.8,287.08l-7.84,0l0,-31.52l7.84,0l0,31.52zm-6.74,-1l5.61,0l0,-29.51l-5.61,0l0,29.51z" fill="#1F2024" id="XMLID_145_"/>
        </g>
       </g>
       <g id="XMLID_2664_">
        <g id="XMLID_167_">
         <rect fill="#FFFFFF" height="30.51" id="XMLID_1355_" width="6.72" x="740.81" y="256.06"/>
        </g>
        <g id="XMLID_168_">
         <path d="m748.09,287.08l-7.83,0l0,-31.52l7.83,0l0,31.52zm-6.72,-1l5.61,0l0,-29.51l-5.61,0l0,29.51z" fill="#1F2024" id="XMLID_146_"/>
        </g>
       </g>
       <g id="XMLID_2663_">
        <g id="XMLID_140_">
         <rect fill="#FFFFFF" height="30.51" id="XMLID_1354_" width="6.72" x="768.33" y="256.06"/>
        </g>
        <g id="XMLID_164_">
         <path d="m775.6,287.08l-7.83,0l0,-31.52l7.83,0l0,31.52zm-6.72,-1l5.61,0l0,-29.51l-5.61,0l0,29.51z" fill="#1F2024" id="XMLID_148_"/>
        </g>
       </g>
      </g>
      <g id="XMLID_2650_">
       <g id="XMLID_163_">
        <rect fill="#4396D5" height="41.49" id="XMLID_740_" width="0.83" x="732.44" y="203.33"/>
       </g>
       <g id="XMLID_162_">
        <rect fill="#4396D5" height="41.49" id="XMLID_739_" width="0.83" x="736.42" y="203.33"/>
       </g>
       <g id="XMLID_161_">
        <rect fill="#4396D5" height="41.49" id="XMLID_738_" width="0.83" x="740.39" y="203.33"/>
       </g>
       <g id="XMLID_160_">
        <rect fill="#4396D5" height="41.49" id="XMLID_737_" width="0.83" x="744.37" y="203.33"/>
       </g>
       <g id="XMLID_159_">
        <rect fill="#4396D5" height="41.49" id="XMLID_736_" width="0.83" x="748.34" y="203.33"/>
       </g>
       <g id="XMLID_158_">
        <rect fill="#4396D5" height="41.49" id="XMLID_735_" width="0.83" x="752.32" y="203.33"/>
       </g>
       <g id="XMLID_157_">
        <rect fill="#4396D5" height="41.49" id="XMLID_734_" width="0.83" x="756.29" y="203.33"/>
       </g>
      </g>
      <g id="XMLID_2616_">
       <g id="XMLID_2639_">
        <g id="XMLID_156_">
         <rect fill="#4396D5" height="2.93" id="XMLID_729_" width="16.51" x="691.74" y="302.48"/>
         <path d="m708.52,305.66l-17.05,0l0,-3.43l17.05,0l0,3.43zm-16.5,-0.5l15.95,0l0,-2.43l-15.95,0l0,2.43z" fill="#1F2024" id="XMLID_730_"/>
        </g>
        <g id="XMLID_155_">
         <rect fill="#4396D5" height="2.93" id="XMLID_725_" width="16.51" x="691.74" y="317.22"/>
         <path d="m708.52,320.39l-17.05,0l0,-3.42l17.05,0l0,3.42zm-16.5,-0.5l15.95,0l0,-2.42l-15.95,0l0,2.42z" fill="#1F2024" id="XMLID_726_"/>
        </g>
        <g id="XMLID_154_">
         <rect fill="#4396D5" height="2.93" id="XMLID_721_" width="16.51" x="691.74" y="331.95"/>
         <path d="m708.52,335.13l-17.05,0l0,-3.43l17.05,0l0,3.43zm-16.5,-0.5l15.95,0l0,-2.43l-15.95,0l0,2.43z" fill="#1F2024" id="XMLID_722_"/>
        </g>
        <g id="XMLID_153_">
         <rect fill="#4396D5" height="2.93" id="XMLID_717_" width="16.51" x="691.74" y="346.69"/>
         <path d="m708.52,349.87l-17.05,0l0,-3.43l17.05,0l0,3.43zm-16.5,-0.5l15.95,0l0,-2.43l-15.95,0l0,2.43z" fill="#1F2024" id="XMLID_718_"/>
        </g>
        <g id="XMLID_152_">
         <rect fill="#4396D5" height="2.93" id="XMLID_713_" width="16.51" x="691.74" y="361.43"/>
         <path d="m708.52,364.61l-17.05,0l0,-3.43l17.05,0l0,3.43zm-16.5,-0.5l15.95,0l0,-2.43l-15.95,0l0,2.43z" fill="#1F2024" id="XMLID_714_"/>
        </g>
       </g>
       <g id="XMLID_2628_">
        <g id="XMLID_151_">
         <rect fill="#4396D5" height="2.93" id="XMLID_709_" width="16.51" x="737.9" y="302.48"/>
         <path d="m754.69,305.66l-17.05,0l0,-3.43l17.05,0l0,3.43zm-16.5,-0.5l15.95,0l0,-2.43l-15.95,0l0,2.43z" fill="#1F2024" id="XMLID_710_"/>
        </g>
        <g id="XMLID_150_">
         <rect fill="#4396D5" height="2.93" id="XMLID_705_" width="16.51" x="737.9" y="317.22"/>
         <path d="m754.69,320.39l-17.05,0l0,-3.42l17.05,0l0,3.42zm-16.5,-0.5l15.95,0l0,-2.42l-15.95,0l0,2.42z" fill="#1F2024" id="XMLID_706_"/>
        </g>
        <g id="XMLID_149_">
         <rect fill="#4396D5" height="2.93" id="XMLID_701_" width="16.51" x="737.9" y="331.95"/>
         <path d="m754.69,335.13l-17.05,0l0,-3.43l17.05,0l0,3.43zm-16.5,-0.5l15.95,0l0,-2.43l-15.95,0l0,2.43z" fill="#1F2024" id="XMLID_702_"/>
        </g>
        <g id="XMLID_147_">
         <rect fill="#4396D5" height="2.93" id="XMLID_697_" width="16.51" x="737.9" y="346.69"/>
         <path d="m754.69,349.87l-17.05,0l0,-3.43l17.05,0l0,3.43zm-16.5,-0.5l15.95,0l0,-2.43l-15.95,0l0,2.43z" fill="#1F2024" id="XMLID_698_"/>
        </g>
        <g id="XMLID_321_">
         <rect fill="#4396D5" height="2.93" id="XMLID_693_" width="16.51" x="737.9" y="361.43"/>
         <path d="m754.69,364.61l-17.05,0l0,-3.43l17.05,0l0,3.43zm-16.5,-0.5l15.95,0l0,-2.43l-15.95,0l0,2.43z" fill="#1F2024" id="XMLID_694_"/>
        </g>
       </g>
       <g id="XMLID_2617_">
        <g id="XMLID_427_">
         <rect fill="#4396D5" height="2.93" id="XMLID_689_" width="16.51" x="781.31" y="302.48"/>
         <path d="m798.11,305.66l-17.07,0l0,-3.43l17.05,0l0,3.43l0.01,0l0.01,0zm-16.51,-0.5l15.95,0l0,-2.43l-15.95,0l0,2.43z" fill="#1F2024" id="XMLID_690_"/>
        </g>
        <g id="XMLID_428_">
         <rect fill="#4396D5" height="2.93" id="XMLID_685_" width="16.51" x="781.31" y="317.22"/>
         <path d="m798.11,320.39l-17.07,0l0,-3.42l17.05,0l0,3.42l0.01,0l0.01,0zm-16.51,-0.5l15.95,0l0,-2.42l-15.95,0l0,2.42z" fill="#1F2024" id="XMLID_686_"/>
        </g>
        <g id="XMLID_429_">
         <rect fill="#4396D5" height="2.93" id="XMLID_681_" width="16.51" x="781.31" y="331.95"/>
         <path d="m798.11,335.13l-17.07,0l0,-3.43l17.05,0l0,3.43l0.01,0l0.01,0zm-16.51,-0.5l15.95,0l0,-2.43l-15.95,0l0,2.43z" fill="#1F2024" id="XMLID_682_"/>
        </g>
        <g id="XMLID_436_">
         <rect fill="#4396D5" height="2.93" id="XMLID_677_" width="16.51" x="781.31" y="346.69"/>
         <path d="m798.11,349.87l-17.07,0l0,-3.43l17.05,0l0,3.43l0.01,0l0.01,0zm-16.51,-0.5l15.95,0l0,-2.43l-15.95,0l0,2.43z" fill="#1F2024" id="XMLID_678_"/>
        </g>
        <g id="XMLID_437_">
         <rect fill="#4396D5" height="2.93" id="XMLID_673_" width="16.51" x="781.31" y="361.43"/>
         <path d="m798.11,364.61l-17.07,0l0,-3.43l17.05,0l0,3.43l0.01,0l0.01,0zm-16.51,-0.5l15.95,0l0,-2.43l-15.95,0l0,2.43z" fill="#1F2024" id="XMLID_674_"/>
        </g>
       </g>
      </g>
      <g id="XMLID_2613_">
       <g id="XMLID_2615_">
        <g id="XMLID_438_">
         <rect fill="#1F2024" height="12.49" id="XMLID_439_" width="0.55" x="744.51" y="178.35"/>
        </g>
       </g>
       <g id="XMLID_2614_">
        <g id="XMLID_440_">
         <rect fill="#1F2024" height="0.5" id="XMLID_441_" width="6.72" x="741.43" y="178.1"/>
        </g>
       </g>
      </g>
     </g>
     <g id="XMLID_134_">
      <g id="XMLID_2863_">
       <g id="XMLID_2866_">
        <g id="XMLID_443_">
         <rect fill="#FED9CA" height="185.73" id="XMLID_1353_" width="80.1" x="60.94" y="190.76"/>
        </g>
        <g id="XMLID_444_">
         <path d="m141.59,376.99l-81.2,0l0,-186.73l81.2,0l0,186.73zm-80.09,-1l78.98,0l0,-184.73l-78.99,0l0,184.73l0.01,0z" fill="#1F2024" id="XMLID_445_"/>
        </g>
       </g>
       <g id="XMLID_2865_">
        <g id="XMLID_448_">
         <rect fill="#FFFFFF" height="29.84" id="XMLID_1352_" width="40.46" x="80.76" y="160.92"/>
        </g>
        <g id="XMLID_449_">
         <path d="m121.78,191.27l-41.57,0l0,-30.84l41.57,0l0,30.84zm-40.47,-1l39.37,0l0,-28.84l-39.37,0l0,28.84z" fill="#1F2024" id="XMLID_450_"/>
        </g>
       </g>
       <g id="XMLID_2864_">
        <g id="XMLID_453_">
         <rect fill="#4396D5" height="38.11" id="XMLID_1351_" width="15.47" x="93.26" y="122.82"/>
        </g>
        <g id="XMLID_454_">
         <path d="m109.28,161.42l-16.57,0l0,-39.1l16.57,0l0,39.1zm-15.47,-1l14.36,0l0,-37.1l-14.36,0l0,37.1z" fill="#1F2024" id="XMLID_455_"/>
        </g>
       </g>
      </g>
      <g id="XMLID_3003_">
       <g id="XMLID_2602_">
        <g id="XMLID_458_">
         <path d="m73.97,211.37l-0.85,0c-0.35,0 -0.64,-0.26 -0.64,-0.58l0,-6.67c0,-0.32 0.29,-0.59 0.64,-0.59l0.85,0c0.35,0 0.64,0.27 0.64,0.59l0,6.67c0,0.32 -0.29,0.58 -0.64,0.58z" fill="#FFFFFF" id="XMLID_669_"/>
         <path d="m73.97,211.87l-0.85,0c-0.66,0 -1.2,-0.48 -1.2,-1.08l0,-6.67c0,-0.6 0.54,-1.09 1.2,-1.09l0.85,0c0.66,0 1.19,0.49 1.19,1.09l0,6.67c0,0.6 -0.53,1.08 -1.19,1.08zm-0.85,-7.85c-0.06,0 -0.1,0.04 -0.1,0.09l0,6.67c0,0.04 0.04,0.08 0.1,0.08l0.85,0c0.04,0 0.09,-0.04 0.09,-0.08l0,-6.67c0,-0.05 -0.04,-0.09 -0.09,-0.09l-0.85,0z" fill="#1F2024" id="XMLID_670_"/>
        </g>
        <g id="XMLID_459_">
         <path d="m86.84,203.53l0.85,0c0.35,0 0.64,0.27 0.64,0.59l0,6.67c0,0.32 -0.29,0.58 -0.64,0.58l-0.85,0c-0.35,0 -0.64,-0.26 -0.64,-0.58l0,-6.67c0,-0.32 0.29,-0.59 0.64,-0.59z" fill="#FFFFFF" id="XMLID_665_"/>
         <path d="m87.7,211.87l-0.85,0c-0.66,0 -1.19,-0.48 -1.19,-1.08l0,-6.67c0,-0.6 0.53,-1.09 1.19,-1.09l0.85,0c0.66,0 1.19,0.49 1.19,1.09l0,6.67c0,0.6 -0.53,1.08 -1.19,1.08zm-0.85,-7.85c-0.04,0 -0.09,0.04 -0.09,0.09l0,6.67c0,0.04 0.04,0.08 0.09,0.08l0.85,0c0.04,0 0.09,-0.04 0.09,-0.08l0,-6.67c0,-0.05 -0.04,-0.09 -0.09,-0.09l-0.85,0z" fill="#1F2024" id="XMLID_666_"/>
        </g>
        <g id="XMLID_460_">
         <path d="m100.56,203.53l0.85,0c0.35,0 0.64,0.27 0.64,0.59l0,6.67c0,0.32 -0.29,0.58 -0.64,0.58l-0.85,0c-0.35,0 -0.64,-0.26 -0.64,-0.58l0,-6.67c0,-0.32 0.29,-0.59 0.64,-0.59z" fill="#FFFFFF" id="XMLID_661_"/>
         <path d="m101.42,211.87l-0.85,0c-0.66,0 -1.19,-0.48 -1.19,-1.08l0,-6.67c0,-0.6 0.53,-1.09 1.19,-1.09l0.85,0c0.66,0 1.19,0.49 1.19,1.09l0,6.67c0,0.6 -0.53,1.08 -1.19,1.08zm-0.85,-7.85c-0.04,0 -0.09,0.04 -0.09,0.09l0,6.67c0,0.04 0.04,0.08 0.09,0.08l0.85,0c0.04,0 0.09,-0.04 0.09,-0.08l0,-6.67c0,-0.05 -0.04,-0.09 -0.09,-0.09l-0.85,0z" fill="#1F2024" id="XMLID_662_"/>
        </g>
        <g id="XMLID_461_">
         <path d="m114.28,203.53l0.85,0c0.35,0 0.64,0.27 0.64,0.59l0,6.67c0,0.32 -0.29,0.58 -0.64,0.58l-0.85,0c-0.35,0 -0.64,-0.26 -0.64,-0.58l0,-6.67c0,-0.32 0.29,-0.59 0.64,-0.59z" fill="#FFFFFF" id="XMLID_657_"/>
         <path d="m115.14,211.87l-0.85,0c-0.66,0 -1.19,-0.48 -1.19,-1.08l0,-6.67c0,-0.6 0.53,-1.09 1.19,-1.09l0.85,0c0.66,0 1.19,0.49 1.19,1.09l0,6.67c0,0.6 -0.53,1.08 -1.19,1.08zm-0.85,-7.85c-0.04,0 -0.09,0.04 -0.09,0.09l0,6.67c0,0.04 0.04,0.08 0.09,0.08l0.85,0c0.06,0 0.09,-0.04 0.09,-0.08l0,-6.67c0,-0.05 -0.03,-0.09 -0.09,-0.09l-0.85,0z" fill="#1F2024" id="XMLID_658_"/>
        </g>
        <g id="XMLID_462_">
         <path d="m128.86,211.37l-0.85,0c-0.35,0 -0.64,-0.26 -0.64,-0.58l0,-6.67c0,-0.32 0.29,-0.59 0.64,-0.59l0.85,0c0.35,0 0.64,0.27 0.64,0.59l0,6.67c0,0.32 -0.29,0.58 -0.64,0.58z" fill="#FFFFFF" id="XMLID_653_"/>
         <path d="m128.86,211.87l-0.85,0c-0.66,0 -1.19,-0.48 -1.19,-1.08l0,-6.67c0,-0.6 0.53,-1.09 1.19,-1.09l0.85,0c0.66,0 1.19,0.49 1.19,1.09l0,6.67c0,0.6 -0.53,1.08 -1.19,1.08zm-0.85,-7.85c-0.04,0 -0.09,0.04 -0.09,0.09l0,6.67c0,0.05 0.04,0.08 0.09,0.08l0.85,0c0.06,0 0.09,-0.04 0.09,-0.08l0,-6.67c0,-0.05 -0.03,-0.09 -0.09,-0.09l-0.85,0z" fill="#1F2024" id="XMLID_654_"/>
        </g>
       </g>
       <g id="XMLID_2591_">
        <g id="XMLID_463_">
         <path d="m73.97,226.67l-0.85,0c-0.35,0 -0.64,-0.26 -0.64,-0.58l0,-6.67c0,-0.32 0.29,-0.59 0.64,-0.59l0.85,0c0.35,0 0.64,0.27 0.64,0.59l0,6.67c0,0.32 -0.29,0.58 -0.64,0.58z" fill="#FFFFFF" id="XMLID_649_"/>
         <path d="m73.97,227.18l-0.85,0c-0.66,0 -1.2,-0.48 -1.2,-1.08l0,-6.67c0,-0.6 0.54,-1.09 1.2,-1.09l0.85,0c0.66,0 1.19,0.49 1.19,1.09l0,6.67c0,0.6 -0.53,1.08 -1.19,1.08zm-0.85,-7.85c-0.06,0 -0.1,0.04 -0.1,0.09l0,6.67c0,0.05 0.04,0.08 0.1,0.08l0.85,0c0.04,0 0.09,-0.04 0.09,-0.08l0,-6.67c0,-0.05 -0.04,-0.09 -0.09,-0.09l-0.85,0z" fill="#1F2024" id="XMLID_650_"/>
        </g>
        <g id="XMLID_464_">
         <path d="m86.84,218.83l0.85,0c0.35,0 0.64,0.27 0.64,0.59l0,6.67c0,0.32 -0.29,0.58 -0.64,0.58l-0.85,0c-0.35,0 -0.64,-0.26 -0.64,-0.58l0,-6.67c0,-0.32 0.29,-0.59 0.64,-0.59z" fill="#FFFFFF" id="XMLID_645_"/>
         <path d="m87.7,227.18l-0.85,0c-0.66,0 -1.19,-0.48 -1.19,-1.08l0,-6.67c0,-0.6 0.53,-1.09 1.19,-1.09l0.85,0c0.66,0 1.19,0.49 1.19,1.09l0,6.67c0,0.6 -0.53,1.08 -1.19,1.08zm-0.85,-7.85c-0.04,0 -0.09,0.04 -0.09,0.09l0,6.67c0,0.05 0.04,0.08 0.09,0.08l0.85,0c0.04,0 0.09,-0.04 0.09,-0.08l0,-6.67c0,-0.05 -0.04,-0.09 -0.09,-0.09l-0.85,0z" fill="#1F2024" id="XMLID_646_"/>
        </g>
        <g id="XMLID_465_">
         <path d="m100.56,218.83l0.85,0c0.35,0 0.64,0.27 0.64,0.59l0,6.67c0,0.32 -0.29,0.58 -0.64,0.58l-0.85,0c-0.35,0 -0.64,-0.26 -0.64,-0.58l0,-6.67c0,-0.32 0.29,-0.59 0.64,-0.59z" fill="#FFFFFF" id="XMLID_641_"/>
         <path d="m101.42,227.18l-0.85,0c-0.66,0 -1.19,-0.48 -1.19,-1.08l0,-6.67c0,-0.6 0.53,-1.09 1.19,-1.09l0.85,0c0.66,0 1.19,0.49 1.19,1.09l0,6.67c0,0.6 -0.53,1.08 -1.19,1.08zm-0.85,-7.85c-0.06,0 -0.09,0.04 -0.09,0.09l0,6.67c0,0.05 0.04,0.08 0.09,0.08l0.85,0c0.06,0 0.09,-0.03 0.09,-0.08l0,-6.67c0,-0.05 -0.03,-0.09 -0.09,-0.09l-0.85,0z" fill="#1F2024" id="XMLID_642_"/>
        </g>
        <g id="XMLID_466_">
         <path d="m114.28,218.83l0.85,0c0.35,0 0.64,0.27 0.64,0.59l0,6.67c0,0.32 -0.29,0.58 -0.64,0.58l-0.85,0c-0.35,0 -0.64,-0.26 -0.64,-0.58l0,-6.67c0,-0.32 0.29,-0.59 0.64,-0.59z" fill="#FFFFFF" id="XMLID_637_"/>
         <path d="m115.14,227.18l-0.85,0c-0.66,0 -1.19,-0.48 -1.19,-1.08l0,-6.67c0,-0.6 0.53,-1.09 1.19,-1.09l0.85,0c0.66,0 1.19,0.49 1.19,1.09l0,6.67c0,0.6 -0.53,1.08 -1.19,1.08zm-0.85,-7.85c-0.04,0 -0.09,0.04 -0.09,0.09l0,6.67c0,0.05 0.04,0.08 0.09,0.08l0.85,0c0.06,0 0.09,-0.03 0.09,-0.08l0,-6.67c0,-0.05 -0.03,-0.09 -0.09,-0.09l-0.85,0z" fill="#1F2024" id="XMLID_638_"/>
        </g>
        <g id="XMLID_467_">
         <path d="m128.86,226.67l-0.85,0c-0.35,0 -0.64,-0.26 -0.64,-0.58l0,-6.67c0,-0.32 0.29,-0.59 0.64,-0.59l0.85,0c0.35,0 0.64,0.27 0.64,0.59l0,6.67c0,0.32 -0.29,0.58 -0.64,0.58z" fill="#FFFFFF" id="XMLID_633_"/>
         <path d="m128.86,227.18l-0.85,0c-0.66,0 -1.19,-0.48 -1.19,-1.08l0,-6.67c0,-0.6 0.53,-1.09 1.19,-1.09l0.85,0c0.66,0 1.19,0.49 1.19,1.09l0,6.67c0,0.6 -0.53,1.08 -1.19,1.08zm-0.85,-7.85c-0.04,0 -0.09,0.04 -0.09,0.09l0,6.67c0,0.05 0.04,0.08 0.09,0.08l0.85,0c0.06,0 0.09,-0.04 0.09,-0.08l0,-6.67c0,-0.05 -0.03,-0.09 -0.09,-0.09l-0.85,0z" fill="#1F2024" id="XMLID_634_"/>
        </g>
       </g>
       <g id="XMLID_2580_">
        <g id="XMLID_468_">
         <path d="m73.86,241.32l-0.85,0c-0.35,0 -0.64,-0.26 -0.64,-0.58l0,-6.67c0,-0.32 0.29,-0.59 0.64,-0.59l0.85,0c0.35,0 0.64,0.27 0.64,0.59l0,6.67c0.01,0.32 -0.29,0.58 -0.64,0.58z" fill="#FFFFFF" id="XMLID_629_"/>
         <path d="m73.86,241.83l-0.85,0c-0.66,0 -1.19,-0.48 -1.19,-1.08l0,-6.67c0,-0.6 0.53,-1.09 1.19,-1.09l0.85,0c0.66,0 1.2,0.49 1.2,1.09l0,6.67c0,0.6 -0.54,1.08 -1.2,1.08zm-0.85,-7.85c-0.04,0 -0.09,0.04 -0.09,0.09l0,6.67c0,0.05 0.04,0.08 0.09,0.08l0.85,0c0.06,0 0.1,-0.03 0.1,-0.08l0,-6.67c0,-0.05 -0.04,-0.09 -0.1,-0.09l-0.85,0z" fill="#1F2024" id="XMLID_630_"/>
        </g>
        <g id="XMLID_469_">
         <path d="m86.73,233.48l0.85,0c0.35,0 0.64,0.27 0.64,0.59l0,6.67c0,0.32 -0.29,0.58 -0.64,0.58l-0.85,0c-0.35,0 -0.64,-0.26 -0.64,-0.58l0,-6.67c0,-0.32 0.29,-0.59 0.64,-0.59z" fill="#FFFFFF" id="XMLID_625_"/>
         <path d="m87.59,241.83l-0.85,0c-0.66,0 -1.19,-0.48 -1.19,-1.08l0,-6.67c0,-0.6 0.53,-1.09 1.19,-1.09l0.85,0c0.66,0 1.2,0.49 1.2,1.09l0,6.67c0,0.6 -0.54,1.08 -1.2,1.08zm-0.85,-7.85c-0.04,0 -0.09,0.04 -0.09,0.09l0,6.67c0,0.05 0.04,0.08 0.09,0.08l0.85,0c0.06,0 0.1,-0.03 0.1,-0.08l0,-6.67c0,-0.05 -0.04,-0.09 -0.1,-0.09l-0.85,0z" fill="#1F2024" id="XMLID_626_"/>
        </g>
        <g id="XMLID_470_">
         <path d="m100.45,233.48l0.85,0c0.35,0 0.65,0.27 0.65,0.59l0,6.67c0,0.32 -0.3,0.58 -0.65,0.58l-0.85,0c-0.35,0 -0.64,-0.26 -0.64,-0.58l0,-6.67c0,-0.32 0.29,-0.59 0.64,-0.59z" fill="#FFFFFF" id="XMLID_621_"/>
         <path d="m101.31,241.83l-0.85,0c-0.65,0 -1.19,-0.48 -1.19,-1.08l0,-6.67c0,-0.6 0.54,-1.09 1.19,-1.09l0.85,0c0.66,0 1.2,0.49 1.2,1.09l0,6.67c0,0.6 -0.54,1.08 -1.2,1.08zm-0.85,-7.85c-0.04,0 -0.09,0.04 -0.09,0.09l0,6.67c0,0.05 0.04,0.08 0.09,0.08l0.85,0c0.06,0 0.1,-0.03 0.1,-0.08l0,-6.67c0,-0.05 -0.04,-0.09 -0.1,-0.09l-0.85,0z" fill="#1F2024" id="XMLID_622_"/>
        </g>
        <g id="XMLID_471_">
         <path d="m114.17,233.48l0.85,0c0.35,0 0.65,0.27 0.65,0.59l0,6.67c0,0.32 -0.3,0.58 -0.65,0.58l-0.85,0c-0.35,0 -0.64,-0.26 -0.64,-0.58l0,-6.67c0,-0.32 0.29,-0.59 0.64,-0.59z" fill="#FFFFFF" id="XMLID_617_"/>
         <path d="m115.03,241.83l-0.85,0c-0.65,0 -1.19,-0.48 -1.19,-1.08l0,-6.67c0,-0.6 0.54,-1.09 1.19,-1.09l0.85,0c0.66,0 1.2,0.49 1.2,1.09l0,6.67c0,0.6 -0.54,1.08 -1.2,1.08zm-0.85,-7.85c-0.04,0 -0.09,0.04 -0.09,0.09l0,6.67c0,0.05 0.04,0.08 0.09,0.08l0.85,0c0.06,0 0.1,-0.03 0.1,-0.08l0,-6.67c0,-0.05 -0.04,-0.09 -0.1,-0.09l-0.85,0z" fill="#1F2024" id="XMLID_618_"/>
        </g>
        <g id="XMLID_472_">
         <path d="m128.75,241.32l-0.84,0c-0.36,0 -0.65,-0.26 -0.65,-0.58l0,-6.67c0,-0.32 0.29,-0.59 0.65,-0.59l0.84,0c0.36,0 0.65,0.27 0.65,0.59l0,6.67c0,0.32 -0.29,0.58 -0.65,0.58z" fill="#FFFFFF" id="XMLID_613_"/>
         <path d="m128.75,241.83l-0.84,0c-0.66,0 -1.2,-0.48 -1.2,-1.08l0,-6.67c0,-0.6 0.54,-1.09 1.2,-1.09l0.84,0c0.66,0 1.2,0.49 1.2,1.09l0,6.67c0,0.6 -0.54,1.08 -1.2,1.08zm-0.84,-7.85c-0.06,0 -0.1,0.04 -0.1,0.09l0,6.67c0,0.05 0.04,0.08 0.1,0.08l0.84,0c0.06,0 0.1,-0.03 0.1,-0.08l0,-6.67c0,-0.05 -0.04,-0.09 -0.1,-0.09l-0.84,0z" fill="#1F2024" id="XMLID_614_"/>
        </g>
       </g>
       <g id="XMLID_2569_">
        <g id="XMLID_473_">
         <path d="m73.86,256.63l-0.85,0c-0.35,0 -0.64,-0.26 -0.64,-0.58l0,-6.67c0,-0.32 0.29,-0.59 0.64,-0.59l0.85,0c0.35,0 0.64,0.27 0.64,0.59l0,6.67c0.01,0.32 -0.29,0.58 -0.64,0.58z" fill="#FFFFFF" id="XMLID_609_"/>
         <path d="m73.86,257.13l-0.85,0c-0.66,0 -1.19,-0.48 -1.19,-1.08l0,-6.67c0,-0.6 0.53,-1.09 1.19,-1.09l0.85,0c0.66,0 1.2,0.49 1.2,1.09l0,6.67c0,0.6 -0.54,1.08 -1.2,1.08zm-0.85,-7.85c-0.04,0 -0.09,0.04 -0.09,0.09l0,6.67c0,0.04 0.04,0.08 0.09,0.08l0.85,0c0.06,0 0.1,-0.04 0.1,-0.08l0,-6.67c0,-0.05 -0.04,-0.09 -0.1,-0.09l-0.85,0z" fill="#1F2024" id="XMLID_610_"/>
        </g>
        <g id="XMLID_474_">
         <path d="m86.73,248.78l0.85,0c0.35,0 0.64,0.27 0.64,0.59l0,6.67c0,0.32 -0.29,0.58 -0.64,0.58l-0.85,0c-0.35,0 -0.64,-0.26 -0.64,-0.58l0,-6.67c0,-0.32 0.29,-0.59 0.64,-0.59z" fill="#FFFFFF" id="XMLID_605_"/>
         <path d="m87.59,257.13l-0.85,0c-0.66,0 -1.19,-0.48 -1.19,-1.08l0,-6.67c0,-0.6 0.53,-1.09 1.19,-1.09l0.85,0c0.66,0 1.2,0.49 1.2,1.09l0,6.67c0,0.6 -0.54,1.08 -1.2,1.08zm-0.85,-7.85c-0.04,0 -0.09,0.04 -0.09,0.09l0,6.67c0,0.04 0.04,0.08 0.09,0.08l0.85,0c0.06,0 0.1,-0.04 0.1,-0.08l0,-6.67c0,-0.05 -0.04,-0.09 -0.1,-0.09l-0.85,0z" fill="#1F2024" id="XMLID_606_"/>
        </g>
        <g id="XMLID_475_">
         <path d="m100.45,248.78l0.85,0c0.35,0 0.65,0.27 0.65,0.59l0,6.67c0,0.32 -0.3,0.58 -0.65,0.58l-0.85,0c-0.35,0 -0.64,-0.26 -0.64,-0.58l0,-6.67c0,-0.32 0.29,-0.59 0.64,-0.59z" fill="#FFFFFF" id="XMLID_601_"/>
         <path d="m101.31,257.13l-0.85,0c-0.65,0 -1.19,-0.48 -1.19,-1.08l0,-6.67c0,-0.6 0.54,-1.09 1.19,-1.09l0.85,0c0.66,0 1.2,0.49 1.2,1.09l0,6.67c0,0.6 -0.54,1.08 -1.2,1.08zm-0.85,-7.85c-0.04,0 -0.09,0.04 -0.09,0.09l0,6.67c0,0.04 0.04,0.08 0.09,0.08l0.85,0c0.06,0 0.1,-0.04 0.1,-0.08l0,-6.67c0,-0.05 -0.04,-0.09 -0.1,-0.09l-0.85,0z" fill="#1F2024" id="XMLID_602_"/>
        </g>
        <g id="XMLID_476_">
         <path d="m114.17,248.78l0.85,0c0.35,0 0.65,0.27 0.65,0.59l0,6.67c0,0.32 -0.3,0.58 -0.65,0.58l-0.85,0c-0.35,0 -0.64,-0.26 -0.64,-0.58l0,-6.67c0,-0.32 0.29,-0.59 0.64,-0.59z" fill="#FFFFFF" id="XMLID_597_"/>
         <path d="m115.03,257.13l-0.85,0c-0.65,0 -1.19,-0.48 -1.19,-1.08l0,-6.67c0,-0.6 0.54,-1.09 1.19,-1.09l0.85,0c0.66,0 1.2,0.49 1.2,1.09l0,6.67c0,0.6 -0.54,1.08 -1.2,1.08zm-0.85,-7.85c-0.04,0 -0.09,0.04 -0.09,0.09l0,6.67c0,0.04 0.04,0.08 0.09,0.08l0.85,0c0.06,0 0.1,-0.04 0.1,-0.08l0,-6.67c0,-0.05 -0.04,-0.09 -0.1,-0.09l-0.85,0z" fill="#1F2024" id="XMLID_598_"/>
        </g>
        <g id="XMLID_477_">
         <path d="m128.75,256.63l-0.84,0c-0.36,0 -0.65,-0.26 -0.65,-0.58l0,-6.67c0,-0.32 0.29,-0.59 0.65,-0.59l0.84,0c0.36,0 0.65,0.27 0.65,0.59l0,6.67c0,0.32 -0.29,0.58 -0.65,0.58z" fill="#FFFFFF" id="XMLID_593_"/>
         <path d="m128.75,257.13l-0.84,0c-0.66,0 -1.2,-0.48 -1.2,-1.08l0,-6.67c0,-0.6 0.54,-1.09 1.2,-1.09l0.84,0c0.66,0 1.2,0.49 1.2,1.09l0,6.67c0,0.6 -0.54,1.08 -1.2,1.08zm-0.84,-7.85c-0.06,0 -0.1,0.04 -0.1,0.09l0,6.67c0,0.04 0.04,0.08 0.1,0.08l0.84,0c0.06,0 0.1,-0.04 0.1,-0.08l0,-6.67c0,-0.05 -0.04,-0.09 -0.1,-0.09l-0.84,0z" fill="#1F2024" id="XMLID_594_"/>
        </g>
       </g>
       <g id="XMLID_2558_">
        <g id="XMLID_478_">
         <path d="m73.86,272.18l-0.85,0c-0.35,0 -0.64,-0.26 -0.64,-0.58l0,-6.67c0,-0.32 0.29,-0.59 0.64,-0.59l0.85,0c0.35,0 0.64,0.27 0.64,0.59l0,6.67c0.01,0.32 -0.29,0.58 -0.64,0.58z" fill="#FFFFFF" id="XMLID_589_"/>
         <path d="m73.86,272.69l-0.85,0c-0.66,0 -1.19,-0.49 -1.19,-1.09l0,-6.67c0,-0.6 0.53,-1.08 1.19,-1.08l0.85,0c0.66,0 1.2,0.48 1.2,1.08l0,6.67c0,0.6 -0.54,1.09 -1.2,1.09zm-0.85,-7.86c-0.04,0 -0.09,0.04 -0.09,0.09l0,6.67c0,0.05 0.04,0.08 0.09,0.08l0.85,0c0.06,0 0.1,-0.04 0.1,-0.08l0,-6.67c0,-0.05 -0.04,-0.09 -0.1,-0.09l-0.85,0z" fill="#1F2024" id="XMLID_590_"/>
        </g>
        <g id="XMLID_479_">
         <path d="m86.73,264.34l0.85,0c0.35,0 0.64,0.26 0.64,0.58l0,6.67c0,0.32 -0.29,0.58 -0.64,0.58l-0.85,0c-0.35,0 -0.64,-0.26 -0.64,-0.58l0,-6.67c0,-0.32 0.29,-0.58 0.64,-0.58z" fill="#FFFFFF" id="XMLID_585_"/>
         <path d="m87.59,272.69l-0.85,0c-0.66,0 -1.19,-0.49 -1.19,-1.09l0,-6.67c0,-0.6 0.53,-1.08 1.19,-1.08l0.85,0c0.66,0 1.2,0.48 1.2,1.08l0,6.67c0,0.6 -0.54,1.09 -1.2,1.09zm-0.85,-7.86c-0.04,0 -0.09,0.04 -0.09,0.09l0,6.67c0,0.04 0.04,0.08 0.09,0.08l0.85,0c0.06,0 0.1,-0.04 0.1,-0.08l0,-6.67c0,-0.05 -0.04,-0.09 -0.1,-0.09l-0.85,0z" fill="#1F2024" id="XMLID_586_"/>
        </g>
        <g id="XMLID_480_">
         <path d="m100.45,264.34l0.85,0c0.35,0 0.65,0.26 0.65,0.58l0,6.67c0,0.32 -0.3,0.58 -0.65,0.58l-0.85,0c-0.35,0 -0.64,-0.26 -0.64,-0.58l0,-6.67c0,-0.32 0.29,-0.58 0.64,-0.58z" fill="#FFFFFF" id="XMLID_581_"/>
         <path d="m101.31,272.69l-0.85,0c-0.65,0 -1.19,-0.49 -1.19,-1.09l0,-6.67c0,-0.6 0.54,-1.08 1.19,-1.08l0.85,0c0.66,0 1.2,0.48 1.2,1.08l0,6.67c0,0.6 -0.54,1.09 -1.2,1.09zm-0.85,-7.86c-0.04,0 -0.09,0.04 -0.09,0.09l0,6.67c0,0.04 0.04,0.08 0.09,0.08l0.85,0c0.06,0 0.1,-0.04 0.1,-0.08l0,-6.67c0,-0.05 -0.04,-0.09 -0.1,-0.09l-0.85,0z" fill="#1F2024" id="XMLID_582_"/>
        </g>
        <g id="XMLID_481_">
         <path d="m114.17,264.34l0.85,0c0.35,0 0.65,0.26 0.65,0.58l0,6.67c0,0.32 -0.3,0.58 -0.65,0.58l-0.85,0c-0.35,0 -0.64,-0.26 -0.64,-0.58l0,-6.67c0,-0.32 0.29,-0.58 0.64,-0.58z" fill="#FFFFFF" id="XMLID_577_"/>
         <path d="m115.03,272.69l-0.85,0c-0.65,0 -1.19,-0.49 -1.19,-1.09l0,-6.67c0,-0.6 0.54,-1.08 1.19,-1.08l0.85,0c0.66,0 1.2,0.48 1.2,1.08l0,6.67c0,0.6 -0.54,1.09 -1.2,1.09zm-0.85,-7.86c-0.04,0 -0.09,0.04 -0.09,0.09l0,6.67c0,0.04 0.04,0.08 0.09,0.08l0.85,0c0.06,0 0.1,-0.03 0.1,-0.08l0,-6.67c0,-0.05 -0.04,-0.09 -0.1,-0.09l-0.85,0z" fill="#1F2024" id="XMLID_578_"/>
        </g>
        <g id="XMLID_482_">
         <path d="m128.75,272.18l-0.84,0c-0.36,0 -0.65,-0.26 -0.65,-0.58l0,-6.67c0,-0.32 0.29,-0.59 0.65,-0.59l0.84,0c0.36,0 0.65,0.27 0.65,0.59l0,6.67c0,0.32 -0.29,0.58 -0.65,0.58z" fill="#FFFFFF" id="XMLID_573_"/>
         <path d="m128.75,272.69l-0.84,0c-0.66,0 -1.2,-0.49 -1.2,-1.09l0,-6.67c0,-0.6 0.54,-1.08 1.2,-1.08l0.84,0c0.66,0 1.2,0.48 1.2,1.08l0,6.67c0,0.6 -0.54,1.09 -1.2,1.09zm-0.84,-7.86c-0.06,0 -0.1,0.04 -0.1,0.09l0,6.67c0,0.05 0.04,0.08 0.1,0.08l0.84,0c0.06,0 0.1,-0.03 0.1,-0.08l0,-6.67c0,-0.05 -0.04,-0.09 -0.1,-0.09l-0.84,0z" fill="#1F2024" id="XMLID_574_"/>
        </g>
       </g>
       <g id="XMLID_2547_">
        <g id="XMLID_483_">
         <path d="m73.86,287.48l-0.85,0c-0.35,0 -0.64,-0.26 -0.64,-0.58l0,-6.67c0,-0.32 0.29,-0.59 0.64,-0.59l0.85,0c0.35,0 0.64,0.27 0.64,0.59l0,6.67c0.01,0.32 -0.29,0.58 -0.64,0.58z" fill="#FFFFFF" id="XMLID_569_"/>
         <path d="m73.86,287.98l-0.85,0c-0.66,0 -1.19,-0.48 -1.19,-1.08l0,-6.67c0,-0.6 0.53,-1.09 1.19,-1.09l0.85,0c0.66,0 1.2,0.49 1.2,1.09l0,6.67c0,0.6 -0.54,1.08 -1.2,1.08zm-0.85,-7.85c-0.04,0 -0.09,0.04 -0.09,0.09l0,6.67c0,0.04 0.04,0.08 0.09,0.08l0.85,0c0.06,0 0.1,-0.04 0.1,-0.08l0,-6.67c0,-0.05 -0.04,-0.09 -0.1,-0.09l-0.85,0z" fill="#1F2024" id="XMLID_570_"/>
        </g>
        <g id="XMLID_484_">
         <path d="m86.73,279.63l0.85,0c0.35,0 0.64,0.27 0.64,0.59l0,6.67c0,0.32 -0.29,0.58 -0.64,0.58l-0.85,0c-0.35,0 -0.64,-0.26 -0.64,-0.58l0,-6.67c0,-0.32 0.29,-0.59 0.64,-0.59z" fill="#FFFFFF" id="XMLID_565_"/>
         <path d="m87.59,287.98l-0.85,0c-0.66,0 -1.19,-0.48 -1.19,-1.08l0,-6.67c0,-0.6 0.53,-1.09 1.19,-1.09l0.85,0c0.66,0 1.2,0.49 1.2,1.09l0,6.67c0,0.6 -0.54,1.08 -1.2,1.08zm-0.85,-7.85c-0.04,0 -0.09,0.04 -0.09,0.09l0,6.67c0,0.04 0.04,0.08 0.09,0.08l0.85,0c0.06,0 0.1,-0.04 0.1,-0.08l0,-6.67c0,-0.05 -0.04,-0.09 -0.1,-0.09l-0.85,0z" fill="#1F2024" id="XMLID_566_"/>
        </g>
        <g id="XMLID_485_">
         <path d="m100.45,279.63l0.85,0c0.35,0 0.65,0.27 0.65,0.59l0,6.67c0,0.32 -0.3,0.58 -0.65,0.58l-0.85,0c-0.35,0 -0.64,-0.26 -0.64,-0.58l0,-6.67c0,-0.32 0.29,-0.59 0.64,-0.59z" fill="#FFFFFF" id="XMLID_561_"/>
         <path d="m101.31,287.98l-0.85,0c-0.65,0 -1.19,-0.48 -1.19,-1.08l0,-6.67c0,-0.6 0.54,-1.09 1.19,-1.09l0.85,0c0.66,0 1.2,0.49 1.2,1.09l0,6.67c0,0.6 -0.54,1.08 -1.2,1.08zm-0.85,-7.85c-0.04,0 -0.09,0.04 -0.09,0.09l0,6.67c0,0.04 0.04,0.08 0.09,0.08l0.85,0c0.06,0 0.1,-0.04 0.1,-0.08l0,-6.67c0,-0.05 -0.04,-0.09 -0.1,-0.09l-0.85,0z" fill="#1F2024" id="XMLID_562_"/>
        </g>
        <g id="XMLID_486_">
         <path d="m114.17,279.63l0.85,0c0.35,0 0.65,0.27 0.65,0.59l0,6.67c0,0.32 -0.3,0.58 -0.65,0.58l-0.85,0c-0.35,0 -0.64,-0.26 -0.64,-0.58l0,-6.67c0,-0.32 0.29,-0.59 0.64,-0.59z" fill="#FFFFFF" id="XMLID_557_"/>
         <path d="m115.03,287.98l-0.85,0c-0.65,0 -1.19,-0.48 -1.19,-1.08l0,-6.67c0,-0.6 0.54,-1.09 1.19,-1.09l0.85,0c0.66,0 1.2,0.49 1.2,1.09l0,6.67c0,0.6 -0.54,1.08 -1.2,1.08zm-0.85,-7.85c-0.04,0 -0.09,0.04 -0.09,0.09l0,6.67c0,0.04 0.04,0.08 0.09,0.08l0.85,0c0.06,0 0.1,-0.04 0.1,-0.08l0,-6.67c0,-0.05 -0.04,-0.09 -0.1,-0.09l-0.85,0z" fill="#1F2024" id="XMLID_558_"/>
        </g>
        <g id="XMLID_487_">
         <path d="m128.75,287.48l-0.84,0c-0.36,0 -0.65,-0.26 -0.65,-0.58l0,-6.67c0,-0.32 0.29,-0.59 0.65,-0.59l0.84,0c0.36,0 0.65,0.27 0.65,0.59l0,6.67c0,0.32 -0.29,0.58 -0.65,0.58z" fill="#FFFFFF" id="XMLID_553_"/>
         <path d="m128.75,287.98l-0.84,0c-0.66,0 -1.2,-0.48 -1.2,-1.08l0,-6.67c0,-0.6 0.54,-1.09 1.2,-1.09l0.84,0c0.66,0 1.2,0.49 1.2,1.09l0,6.67c0,0.6 -0.54,1.08 -1.2,1.08zm-0.84,-7.85c-0.06,0 -0.1,0.04 -0.1,0.09l0,6.67c0,0.04 0.04,0.08 0.1,0.08l0.84,0c0.06,0 0.1,-0.04 0.1,-0.08l0,-6.67c0,-0.05 -0.04,-0.09 -0.1,-0.09l-0.84,0z" fill="#1F2024" id="XMLID_554_"/>
        </g>
       </g>
       <g id="XMLID_2536_">
        <g id="XMLID_488_">
         <path d="m73.86,302.13l-0.85,0c-0.35,0 -0.64,-0.26 -0.64,-0.58l0,-6.67c0,-0.32 0.29,-0.59 0.64,-0.59l0.85,0c0.35,0 0.64,0.27 0.64,0.59l0,6.67c0.01,0.32 -0.29,0.58 -0.64,0.58z" fill="#FFFFFF" id="XMLID_549_"/>
         <path d="m73.86,302.63l-0.85,0c-0.66,0 -1.19,-0.48 -1.19,-1.08l0,-6.67c0,-0.6 0.53,-1.09 1.19,-1.09l0.85,0c0.66,0 1.2,0.49 1.2,1.09l0,6.67c0,0.6 -0.54,1.08 -1.2,1.08zm-0.85,-7.85c-0.04,0 -0.09,0.04 -0.09,0.09l0,6.67c0,0.05 0.04,0.08 0.09,0.08l0.85,0c0.06,0 0.1,-0.03 0.1,-0.08l0,-6.67c0,-0.05 -0.04,-0.09 -0.1,-0.09l-0.85,0z" fill="#1F2024" id="XMLID_550_"/>
        </g>
        <g id="XMLID_489_">
         <path d="m86.73,294.28l0.85,0c0.35,0 0.64,0.27 0.64,0.59l0,6.67c0,0.32 -0.29,0.58 -0.64,0.58l-0.85,0c-0.35,0 -0.64,-0.26 -0.64,-0.58l0,-6.67c0,-0.32 0.29,-0.59 0.64,-0.59z" fill="#FFFFFF" id="XMLID_545_"/>
         <path d="m87.59,302.63l-0.85,0c-0.66,0 -1.19,-0.48 -1.19,-1.08l0,-6.67c0,-0.6 0.53,-1.09 1.19,-1.09l0.85,0c0.66,0 1.2,0.49 1.2,1.09l0,6.67c0,0.6 -0.54,1.08 -1.2,1.08zm-0.85,-7.85c-0.04,0 -0.09,0.04 -0.09,0.09l0,6.67c0,0.05 0.04,0.08 0.09,0.08l0.85,0c0.06,0 0.1,-0.03 0.1,-0.08l0,-6.67c0,-0.05 -0.04,-0.09 -0.1,-0.09l-0.85,0z" fill="#1F2024" id="XMLID_546_"/>
        </g>
        <g id="XMLID_490_">
         <path d="m100.45,294.28l0.85,0c0.35,0 0.65,0.27 0.65,0.59l0,6.67c0,0.32 -0.3,0.58 -0.65,0.58l-0.85,0c-0.35,0 -0.64,-0.26 -0.64,-0.58l0,-6.67c0,-0.32 0.29,-0.59 0.64,-0.59z" fill="#FFFFFF" id="XMLID_541_"/>
         <path d="m101.31,302.63l-0.85,0c-0.65,0 -1.19,-0.48 -1.19,-1.08l0,-6.67c0,-0.6 0.54,-1.09 1.19,-1.09l0.85,0c0.66,0 1.2,0.49 1.2,1.09l0,6.67c0,0.6 -0.54,1.08 -1.2,1.08zm-0.85,-7.85c-0.04,0 -0.09,0.04 -0.09,0.09l0,6.67c0,0.05 0.04,0.08 0.09,0.08l0.85,0c0.06,0 0.1,-0.03 0.1,-0.08l0,-6.67c0,-0.05 -0.04,-0.09 -0.1,-0.09l-0.85,0z" fill="#1F2024" id="XMLID_542_"/>
        </g>
        <g id="XMLID_491_">
         <path d="m114.17,294.28l0.85,0c0.35,0 0.65,0.27 0.65,0.59l0,6.67c0,0.32 -0.3,0.58 -0.65,0.58l-0.85,0c-0.35,0 -0.64,-0.26 -0.64,-0.58l0,-6.67c0,-0.32 0.29,-0.59 0.64,-0.59z" fill="#FFFFFF" id="XMLID_537_"/>
         <path d="m115.03,302.63l-0.85,0c-0.65,0 -1.19,-0.48 -1.19,-1.08l0,-6.67c0,-0.6 0.54,-1.09 1.19,-1.09l0.85,0c0.66,0 1.2,0.49 1.2,1.09l0,6.67c0,0.6 -0.54,1.08 -1.2,1.08zm-0.85,-7.85c-0.04,0 -0.09,0.04 -0.09,0.09l0,6.67c0,0.05 0.04,0.08 0.09,0.08l0.85,0c0.06,0 0.1,-0.03 0.1,-0.08l0,-6.67c0,-0.05 -0.04,-0.09 -0.1,-0.09l-0.85,0z" fill="#1F2024" id="XMLID_538_"/>
        </g>
        <g id="XMLID_492_">
         <path d="m128.75,302.13l-0.84,0c-0.36,0 -0.65,-0.26 -0.65,-0.58l0,-6.67c0,-0.32 0.29,-0.59 0.65,-0.59l0.84,0c0.36,0 0.65,0.27 0.65,0.59l0,6.67c0,0.32 -0.29,0.58 -0.65,0.58z" fill="#FFFFFF" id="XMLID_533_"/>
         <path d="m128.75,302.63l-0.84,0c-0.66,0 -1.2,-0.48 -1.2,-1.08l0,-6.67c0,-0.6 0.54,-1.09 1.2,-1.09l0.84,0c0.66,0 1.2,0.49 1.2,1.09l0,6.67c0,0.6 -0.54,1.08 -1.2,1.08zm-0.84,-7.85c-0.06,0 -0.1,0.04 -0.1,0.09l0,6.67c0,0.05 0.04,0.08 0.1,0.08l0.84,0c0.06,0 0.1,-0.03 0.1,-0.08l0,-6.67c0,-0.05 -0.04,-0.09 -0.1,-0.09l-0.84,0z" fill="#1F2024" id="XMLID_534_"/>
        </g>
       </g>
       <g id="XMLID_2525_">
        <g id="XMLID_493_">
         <path d="m73.86,317.43l-0.85,0c-0.35,0 -0.64,-0.26 -0.64,-0.58l0,-6.67c0,-0.32 0.29,-0.59 0.64,-0.59l0.85,0c0.35,0 0.64,0.27 0.64,0.59l0,6.67c0.01,0.32 -0.29,0.58 -0.64,0.58z" fill="#FFFFFF" id="XMLID_529_"/>
         <path d="m73.86,317.93l-0.85,0c-0.66,0 -1.19,-0.48 -1.19,-1.08l0,-6.67c0,-0.6 0.53,-1.09 1.19,-1.09l0.85,0c0.66,0 1.2,0.49 1.2,1.09l0,6.67c0,0.6 -0.54,1.08 -1.2,1.08zm-0.85,-7.85c-0.04,0 -0.09,0.04 -0.09,0.09l0,6.67c0,0.04 0.04,0.08 0.09,0.08l0.85,0c0.06,0 0.1,-0.04 0.1,-0.08l0,-6.67c0,-0.05 -0.04,-0.09 -0.1,-0.09l-0.85,0z" fill="#1F2024" id="XMLID_530_"/>
        </g>
        <g id="XMLID_494_">
         <path d="m86.73,309.59l0.85,0c0.35,0 0.64,0.27 0.64,0.59l0,6.67c0,0.32 -0.29,0.58 -0.64,0.58l-0.85,0c-0.35,0 -0.64,-0.26 -0.64,-0.58l0,-6.67c0,-0.32 0.29,-0.59 0.64,-0.59z" fill="#FFFFFF" id="XMLID_525_"/>
         <path d="m87.59,317.93l-0.85,0c-0.66,0 -1.19,-0.48 -1.19,-1.08l0,-6.67c0,-0.6 0.53,-1.09 1.19,-1.09l0.85,0c0.66,0 1.2,0.49 1.2,1.09l0,6.67c0,0.6 -0.54,1.08 -1.2,1.08zm-0.85,-7.85c-0.04,0 -0.09,0.04 -0.09,0.09l0,6.67c0,0.04 0.04,0.08 0.09,0.08l0.85,0c0.06,0 0.1,-0.04 0.1,-0.08l0,-6.67c0,-0.05 -0.04,-0.09 -0.1,-0.09l-0.85,0z" fill="#1F2024" id="XMLID_526_"/>
        </g>
        <g id="XMLID_495_">
         <path d="m100.45,309.59l0.85,0c0.35,0 0.65,0.27 0.65,0.59l0,6.67c0,0.32 -0.3,0.58 -0.65,0.58l-0.85,0c-0.35,0 -0.64,-0.26 -0.64,-0.58l0,-6.67c0,-0.32 0.29,-0.59 0.64,-0.59z" fill="#FFFFFF" id="XMLID_521_"/>
         <path d="m101.31,317.93l-0.85,0c-0.65,0 -1.19,-0.48 -1.19,-1.08l0,-6.67c0,-0.6 0.54,-1.09 1.19,-1.09l0.85,0c0.66,0 1.2,0.49 1.2,1.09l0,6.67c0,0.6 -0.54,1.08 -1.2,1.08zm-0.85,-7.85c-0.04,0 -0.09,0.04 -0.09,0.09l0,6.67c0,0.04 0.04,0.08 0.09,0.08l0.85,0c0.06,0 0.1,-0.04 0.1,-0.08l0,-6.67c0,-0.05 -0.04,-0.09 -0.1,-0.09l-0.85,0z" fill="#1F2024" id="XMLID_522_"/>
        </g>
        <g id="XMLID_496_">
         <path d="m114.17,309.59l0.85,0c0.35,0 0.65,0.27 0.65,0.59l0,6.67c0,0.32 -0.3,0.58 -0.65,0.58l-0.85,0c-0.35,0 -0.64,-0.26 -0.64,-0.58l0,-6.67c0,-0.32 0.29,-0.59 0.64,-0.59z" fill="#FFFFFF" id="XMLID_517_"/>
         <path d="m115.03,317.93l-0.85,0c-0.65,0 -1.19,-0.48 -1.19,-1.08l0,-6.67c0,-0.6 0.54,-1.09 1.19,-1.09l0.85,0c0.66,0 1.2,0.49 1.2,1.09l0,6.67c0,0.6 -0.54,1.08 -1.2,1.08zm-0.85,-7.85c-0.04,0 -0.09,0.04 -0.09,0.09l0,6.67c0,0.04 0.04,0.08 0.09,0.08l0.85,0c0.06,0 0.1,-0.04 0.1,-0.08l0,-6.67c0,-0.05 -0.04,-0.09 -0.1,-0.09l-0.85,0z" fill="#1F2024" id="XMLID_518_"/>
        </g>
        <g id="XMLID_497_">
         <path d="m128.75,317.43l-0.84,0c-0.36,0 -0.65,-0.26 -0.65,-0.58l0,-6.67c0,-0.32 0.29,-0.59 0.65,-0.59l0.84,0c0.36,0 0.65,0.27 0.65,0.59l0,6.67c0,0.32 -0.29,0.58 -0.65,0.58z" fill="#FFFFFF" id="XMLID_513_"/>
         <path d="m128.75,317.93l-0.84,0c-0.66,0 -1.2,-0.48 -1.2,-1.08l0,-6.67c0,-0.6 0.54,-1.09 1.2,-1.09l0.84,0c0.66,0 1.2,0.49 1.2,1.09l0,6.67c0,0.6 -0.54,1.08 -1.2,1.08zm-0.84,-7.85c-0.06,0 -0.1,0.04 -0.1,0.09l0,6.67c0,0.04 0.04,0.08 0.1,0.08l0.84,0c0.06,0 0.1,-0.04 0.1,-0.08l0,-6.67c0,-0.05 -0.04,-0.09 -0.1,-0.09l-0.84,0z" fill="#1F2024" id="XMLID_514_"/>
        </g>
       </g>
       <g id="XMLID_2514_">
        <g id="XMLID_498_">
         <path d="m73.86,332.41l-0.85,0c-0.35,0 -0.64,-0.26 -0.64,-0.59l0,-6.67c0,-0.32 0.29,-0.58 0.64,-0.58l0.85,0c0.35,0 0.64,0.26 0.64,0.58l0,6.67c0.01,0.33 -0.29,0.59 -0.64,0.59z" fill="#FFFFFF" id="XMLID_509_"/>
         <path d="m73.86,332.91l-0.85,0c-0.66,0 -1.19,-0.49 -1.19,-1.09l0,-6.67c0,-0.6 0.53,-1.08 1.19,-1.08l0.85,0c0.66,0 1.2,0.48 1.2,1.08l0,6.67c0,0.6 -0.54,1.09 -1.2,1.09zm-0.85,-7.85c-0.04,0 -0.09,0.04 -0.09,0.08l0,6.67c0,0.05 0.04,0.09 0.09,0.09l0.85,0c0.06,0 0.1,-0.04 0.1,-0.09l0,-6.67c0,-0.04 -0.04,-0.08 -0.1,-0.08l-0.85,0z" fill="#1F2024" id="XMLID_510_"/>
        </g>
        <g id="XMLID_499_">
         <path d="m86.73,324.57l0.85,0c0.35,0 0.64,0.26 0.64,0.58l0,6.67c0,0.33 -0.29,0.59 -0.64,0.59l-0.85,0c-0.35,0 -0.64,-0.27 -0.64,-0.59l0,-6.67c0,-0.32 0.29,-0.58 0.64,-0.58z" fill="#FFFFFF" id="XMLID_505_"/>
         <path d="m87.59,332.91l-0.85,0c-0.66,0 -1.19,-0.49 -1.19,-1.09l0,-6.67c0,-0.6 0.53,-1.08 1.19,-1.08l0.85,0c0.66,0 1.2,0.48 1.2,1.08l0,6.67c0,0.6 -0.54,1.09 -1.2,1.09zm-0.85,-7.85c-0.04,0 -0.09,0.04 -0.09,0.08l0,6.67c0,0.05 0.04,0.09 0.09,0.09l0.85,0c0.06,0 0.1,-0.04 0.1,-0.09l0,-6.67c0,-0.04 -0.04,-0.08 -0.1,-0.08l-0.85,0z" fill="#1F2024" id="XMLID_506_"/>
        </g>
        <g id="XMLID_500_">
         <path d="m100.45,324.57l0.85,0c0.35,0 0.65,0.26 0.65,0.58l0,6.67c0,0.33 -0.3,0.59 -0.65,0.59l-0.85,0c-0.35,0 -0.64,-0.27 -0.64,-0.59l0,-6.67c0,-0.32 0.29,-0.58 0.64,-0.58z" fill="#FFFFFF" id="XMLID_501_"/>
         <path d="m101.31,332.91l-0.85,0c-0.65,0 -1.19,-0.49 -1.19,-1.09l0,-6.67c0,-0.6 0.54,-1.08 1.19,-1.08l0.85,0c0.66,0 1.2,0.48 1.2,1.08l0,6.67c0,0.6 -0.54,1.09 -1.2,1.09zm-0.85,-7.85c-0.04,0 -0.09,0.04 -0.09,0.08l0,6.67c0,0.05 0.04,0.09 0.09,0.09l0.85,0c0.06,0 0.1,-0.04 0.1,-0.09l0,-6.67c0,-0.04 -0.04,-0.08 -0.1,-0.08l-0.85,0z" fill="#1F2024" id="XMLID_502_"/>
        </g>
        <g id="XMLID_1144_">
         <path d="m114.17,324.57l0.85,0c0.35,0 0.65,0.26 0.65,0.58l0,6.67c0,0.33 -0.3,0.59 -0.65,0.59l-0.85,0c-0.35,0 -0.64,-0.27 -0.64,-0.59l0,-6.67c0,-0.32 0.29,-0.58 0.64,-0.58z" fill="#FFFFFF" id="XMLID_1173_"/>
         <path d="m115.03,332.91l-0.85,0c-0.65,0 -1.19,-0.49 -1.19,-1.09l0,-6.67c0,-0.6 0.54,-1.08 1.19,-1.08l0.85,0c0.66,0 1.2,0.48 1.2,1.08l0,6.67c0,0.6 -0.54,1.09 -1.2,1.09zm-0.85,-7.85c-0.04,0 -0.09,0.04 -0.09,0.08l0,6.67c0,0.05 0.04,0.09 0.09,0.09l0.85,0c0.06,0 0.1,-0.04 0.1,-0.09l0,-6.67c0,-0.04 -0.04,-0.08 -0.1,-0.08l-0.85,0z" fill="#1F2024" id="XMLID_1174_"/>
        </g>
        <g id="XMLID_1178_">
         <path d="m128.75,332.41l-0.84,0c-0.36,0 -0.65,-0.26 -0.65,-0.59l0,-6.67c0,-0.32 0.29,-0.58 0.65,-0.58l0.84,0c0.36,0 0.65,0.26 0.65,0.58l0,6.67c0,0.33 -0.29,0.59 -0.65,0.59z" fill="#FFFFFF" id="XMLID_1179_"/>
         <path d="m128.75,332.91l-0.84,0c-0.66,0 -1.2,-0.49 -1.2,-1.09l0,-6.67c0,-0.6 0.54,-1.08 1.2,-1.08l0.84,0c0.66,0 1.2,0.48 1.2,1.08l0,6.67c0,0.6 -0.54,1.09 -1.2,1.09zm-0.84,-7.85c-0.06,0 -0.1,0.04 -0.1,0.08l0,6.67c0,0.05 0.04,0.09 0.1,0.09l0.84,0c0.06,0 0.1,-0.04 0.1,-0.09l0,-6.67c0,-0.04 -0.04,-0.08 -0.1,-0.08l-0.84,0z" fill="#1F2024" id="XMLID_1180_"/>
        </g>
       </g>
       <g id="XMLID_2503_">
        <g id="XMLID_1183_">
         <path d="m73.86,347.06l-0.85,0c-0.35,0 -0.64,-0.26 -0.64,-0.58l0,-6.68c0,-0.32 0.29,-0.58 0.64,-0.58l0.85,0c0.35,0 0.64,0.26 0.64,0.58l0,6.68c0.01,0.32 -0.29,0.58 -0.64,0.58z" fill="#FFFFFF" id="XMLID_1184_"/>
         <path d="m73.86,347.56l-0.85,0c-0.66,0 -1.19,-0.49 -1.19,-1.08l0,-6.68c0,-0.6 0.53,-1.08 1.19,-1.08l0.85,0c0.66,0 1.2,0.48 1.2,1.08l0,6.68c0,0.59 -0.54,1.08 -1.2,1.08zm-0.85,-7.85c-0.04,0 -0.09,0.04 -0.09,0.08l0,6.68c0,0.04 0.04,0.08 0.09,0.08l0.85,0c0.06,0 0.1,-0.04 0.1,-0.08l0,-6.68c0,-0.04 -0.04,-0.08 -0.1,-0.08l-0.85,0z" fill="#1F2024" id="XMLID_1185_"/>
        </g>
        <g id="XMLID_1188_">
         <path d="m86.73,339.22l0.85,0c0.35,0 0.64,0.26 0.64,0.58l0,6.68c0,0.32 -0.29,0.58 -0.64,0.58l-0.85,0c-0.35,0 -0.64,-0.26 -0.64,-0.58l0,-6.68c0,-0.32 0.29,-0.58 0.64,-0.58z" fill="#FFFFFF" id="XMLID_1189_"/>
         <path d="m87.59,347.56l-0.85,0c-0.66,0 -1.19,-0.49 -1.19,-1.08l0,-6.68c0,-0.6 0.53,-1.08 1.19,-1.08l0.85,0c0.66,0 1.2,0.48 1.2,1.08l0,6.68c0,0.59 -0.54,1.08 -1.2,1.08zm-0.85,-7.85c-0.04,0 -0.09,0.04 -0.09,0.08l0,6.68c0,0.04 0.04,0.08 0.09,0.08l0.85,0c0.06,0 0.1,-0.04 0.1,-0.08l0,-6.68c0,-0.04 -0.04,-0.08 -0.1,-0.08l-0.85,0z" fill="#1F2024" id="XMLID_1190_"/>
        </g>
        <g id="XMLID_1193_">
         <path d="m100.45,339.22l0.85,0c0.35,0 0.65,0.26 0.65,0.58l0,6.68c0,0.32 -0.3,0.58 -0.65,0.58l-0.85,0c-0.35,0 -0.64,-0.26 -0.64,-0.58l0,-6.68c0,-0.32 0.29,-0.58 0.64,-0.58z" fill="#FFFFFF" id="XMLID_1194_"/>
         <path d="m101.31,347.56l-0.85,0c-0.65,0 -1.19,-0.49 -1.19,-1.08l0,-6.68c0,-0.6 0.54,-1.08 1.19,-1.08l0.85,0c0.66,0 1.2,0.48 1.2,1.08l0,6.68c0,0.59 -0.54,1.08 -1.2,1.08zm-0.85,-7.85c-0.04,0 -0.09,0.04 -0.09,0.08l0,6.68c0,0.04 0.04,0.08 0.09,0.08l0.85,0c0.06,0 0.1,-0.04 0.1,-0.08l0,-6.68c0,-0.04 -0.04,-0.08 -0.1,-0.08l-0.85,0z" fill="#1F2024" id="XMLID_1195_"/>
        </g>
        <g id="XMLID_1198_">
         <path d="m114.17,339.22l0.85,0c0.35,0 0.65,0.26 0.65,0.58l0,6.68c0,0.32 -0.3,0.58 -0.65,0.58l-0.85,0c-0.35,0 -0.64,-0.26 -0.64,-0.58l0,-6.68c0,-0.32 0.29,-0.58 0.64,-0.58z" fill="#FFFFFF" id="XMLID_1199_"/>
         <path d="m115.03,347.56l-0.85,0c-0.65,0 -1.19,-0.49 -1.19,-1.08l0,-6.68c0,-0.6 0.54,-1.08 1.19,-1.08l0.85,0c0.66,0 1.2,0.48 1.2,1.08l0,6.68c0,0.59 -0.54,1.08 -1.2,1.08zm-0.85,-7.85c-0.04,0 -0.09,0.04 -0.09,0.08l0,6.68c0,0.04 0.04,0.08 0.09,0.08l0.85,0c0.06,0 0.1,-0.04 0.1,-0.08l0,-6.68c0,-0.04 -0.04,-0.08 -0.1,-0.08l-0.85,0z" fill="#1F2024" id="XMLID_1200_"/>
        </g>
        <g id="XMLID_1203_">
         <path d="m128.75,347.06l-0.84,0c-0.36,0 -0.65,-0.26 -0.65,-0.58l0,-6.68c0,-0.32 0.29,-0.58 0.65,-0.58l0.84,0c0.36,0 0.65,0.26 0.65,0.58l0,6.68c0,0.32 -0.29,0.58 -0.65,0.58z" fill="#FFFFFF" id="XMLID_1204_"/>
         <path d="m128.75,347.56l-0.84,0c-0.66,0 -1.2,-0.49 -1.2,-1.08l0,-6.68c0,-0.6 0.54,-1.08 1.2,-1.08l0.84,0c0.66,0 1.2,0.48 1.2,1.08l0,6.68c0,0.59 -0.54,1.08 -1.2,1.08zm-0.84,-7.85c-0.06,0 -0.1,0.04 -0.1,0.08l0,6.68c0,0.04 0.04,0.08 0.1,0.08l0.84,0c0.06,0 0.1,-0.04 0.1,-0.08l0,-6.68c0,-0.04 -0.04,-0.08 -0.1,-0.08l-0.84,0z" fill="#1F2024" id="XMLID_1205_"/>
        </g>
       </g>
       <g id="XMLID_2492_">
        <g id="XMLID_1208_">
         <path d="m73.86,362.36l-0.85,0c-0.35,0 -0.64,-0.27 -0.64,-0.58l0,-6.68c0,-0.32 0.29,-0.58 0.64,-0.58l0.85,0c0.35,0 0.64,0.26 0.64,0.58l0,6.68c0.01,0.31 -0.29,0.58 -0.64,0.58z" fill="#FFFFFF" id="XMLID_1209_"/>
         <path d="m73.86,362.87l-0.85,0c-0.66,0 -1.19,-0.49 -1.19,-1.08l0,-6.68c0,-0.6 0.53,-1.08 1.19,-1.08l0.85,0c0.66,0 1.2,0.48 1.2,1.08l0,6.68c0,0.59 -0.54,1.08 -1.2,1.08zm-0.85,-7.85c-0.04,0 -0.09,0.04 -0.09,0.08l0,6.67c0,0.05 0.04,0.09 0.09,0.09l0.85,0c0.06,0 0.1,-0.04 0.1,-0.09l0,-6.67c0,-0.04 -0.04,-0.08 -0.1,-0.08l-0.85,0z" fill="#1F2024" id="XMLID_1210_"/>
        </g>
        <g id="XMLID_1213_">
         <path d="m86.73,354.52l0.85,0c0.35,0 0.64,0.26 0.64,0.58l0,6.67c0,0.33 -0.29,0.59 -0.64,0.59l-0.85,0c-0.35,0 -0.64,-0.27 -0.64,-0.59l0,-6.67c0,-0.32 0.29,-0.58 0.64,-0.58z" fill="#FFFFFF" id="XMLID_1214_"/>
         <path d="m87.59,362.87l-0.85,0c-0.66,0 -1.19,-0.49 -1.19,-1.08l0,-6.68c0,-0.6 0.53,-1.08 1.19,-1.08l0.85,0c0.66,0 1.2,0.48 1.2,1.08l0,6.68c0,0.59 -0.54,1.08 -1.2,1.08zm-0.85,-7.85c-0.04,0 -0.09,0.04 -0.09,0.08l0,6.67c0,0.05 0.04,0.09 0.09,0.09l0.85,0c0.06,0 0.1,-0.04 0.1,-0.09l0,-6.67c0,-0.04 -0.04,-0.08 -0.1,-0.08l-0.85,0z" fill="#1F2024" id="XMLID_1215_"/>
        </g>
        <g id="XMLID_1218_">
         <path d="m100.45,354.52l0.85,0c0.35,0 0.65,0.26 0.65,0.58l0,6.67c0,0.33 -0.3,0.59 -0.65,0.59l-0.85,0c-0.35,0 -0.64,-0.27 -0.64,-0.59l0,-6.67c0,-0.32 0.29,-0.58 0.64,-0.58z" fill="#FFFFFF" id="XMLID_1219_"/>
         <path d="m101.31,362.87l-0.85,0c-0.65,0 -1.19,-0.49 -1.19,-1.08l0,-6.68c0,-0.6 0.54,-1.08 1.19,-1.08l0.85,0c0.66,0 1.2,0.48 1.2,1.08l0,6.68c0,0.59 -0.54,1.08 -1.2,1.08zm-0.85,-7.85c-0.04,0 -0.09,0.04 -0.09,0.08l0,6.67c0,0.05 0.04,0.09 0.09,0.09l0.85,0c0.06,0 0.1,-0.04 0.1,-0.09l0,-6.67c0,-0.04 -0.04,-0.08 -0.1,-0.08l-0.85,0z" fill="#1F2024" id="XMLID_1220_"/>
        </g>
        <g id="XMLID_1223_">
         <path d="m114.17,354.52l0.85,0c0.35,0 0.65,0.26 0.65,0.58l0,6.67c0,0.33 -0.3,0.59 -0.65,0.59l-0.85,0c-0.35,0 -0.64,-0.27 -0.64,-0.59l0,-6.67c0,-0.32 0.29,-0.58 0.64,-0.58z" fill="#FFFFFF" id="XMLID_1224_"/>
         <path d="m115.03,362.87l-0.85,0c-0.65,0 -1.19,-0.49 -1.19,-1.08l0,-6.68c0,-0.6 0.54,-1.08 1.19,-1.08l0.85,0c0.66,0 1.2,0.48 1.2,1.08l0,6.68c0,0.59 -0.54,1.08 -1.2,1.08zm-0.85,-7.85c-0.04,0 -0.09,0.04 -0.09,0.08l0,6.67c0,0.05 0.04,0.09 0.09,0.09l0.85,0c0.06,0 0.1,-0.04 0.1,-0.09l0,-6.67c0,-0.04 -0.04,-0.08 -0.1,-0.08l-0.85,0z" fill="#1F2024" id="XMLID_1225_"/>
        </g>
        <g id="XMLID_1228_">
         <path d="m128.75,362.36l-0.84,0c-0.36,0 -0.65,-0.27 -0.65,-0.58l0,-6.68c0,-0.32 0.29,-0.58 0.65,-0.58l0.84,0c0.36,0 0.65,0.26 0.65,0.58l0,6.68c0,0.31 -0.29,0.58 -0.65,0.58z" fill="#FFFFFF" id="XMLID_1229_"/>
         <path d="m128.75,362.87l-0.84,0c-0.66,0 -1.2,-0.49 -1.2,-1.08l0,-6.68c0,-0.6 0.54,-1.08 1.2,-1.08l0.84,0c0.66,0 1.2,0.48 1.2,1.08l0,6.68c0,0.59 -0.54,1.08 -1.2,1.08zm-0.84,-7.85c-0.06,0 -0.1,0.04 -0.1,0.08l0,6.67c0,0.05 0.04,0.09 0.1,0.09l0.84,0c0.06,0 0.1,-0.04 0.1,-0.09l0,-6.67c0,-0.04 -0.04,-0.08 -0.1,-0.08l-0.84,0z" fill="#1F2024" id="XMLID_1230_"/>
        </g>
       </g>
      </g>
      <g id="XMLID_2482_">
       <g id="XMLID_442_">
        <rect fill="#1F2024" height="21.37" id="XMLID_1233_" width="0.55" x="86.19" y="165.59"/>
       </g>
       <g id="XMLID_1234_">
        <rect fill="#1F2024" height="21.37" id="XMLID_1235_" width="0.55" x="93.46" y="165.59"/>
       </g>
       <g id="XMLID_1236_">
        <rect fill="#1F2024" height="21.37" id="XMLID_1237_" width="0.55" x="100.71" y="165.59"/>
       </g>
       <g id="XMLID_1238_">
        <rect fill="#1F2024" height="21.37" id="XMLID_1239_" width="0.55" x="107.97" y="165.59"/>
       </g>
       <g id="XMLID_1240_">
        <rect fill="#1F2024" height="21.37" id="XMLID_1241_" width="0.55" x="115.24" y="165.59"/>
       </g>
      </g>
      <g id="XMLID_2481_">
       <g id="XMLID_1242_">
        <path d="m147.16,191.77l-92.34,0c-0.61,0 -1.1,-0.45 -1.1,-1c0,-0.55 0.5,-1 1.1,-1l92.34,0c0.61,0 1.1,0.45 1.1,1c0,0.55 -0.5,1 -1.1,1z" fill="#1F2024" id="XMLID_1243_"/>
       </g>
      </g>
      <g id="XMLID_2480_">
       <g id="XMLID_1244_">
        <path d="m128.33,161.93l-54.66,0c-0.61,0 -1.1,-0.45 -1.1,-1c0,-0.55 0.5,-1 1.1,-1l54.66,0c0.61,0 1.1,0.45 1.1,1c0,0.55 -0.5,1 -1.1,1z" fill="#1F2024" id="XMLID_1245_"/>
       </g>
      </g>
      <g id="XMLID_2479_">
       <g id="XMLID_1246_">
        <path d="m114.26,123.83l-26.54,0c-0.61,0 -1.1,-0.45 -1.1,-1c0,-0.56 0.5,-1 1.1,-1l26.54,0c0.61,0 1.1,0.44 1.1,1c0,0.55 -0.5,1 -1.1,1z" fill="#1F2024" id="XMLID_1247_"/>
       </g>
      </g>
     </g>
     <g id="XMLID_139_">
      <g id="XMLID_2478_">
       <g id="XMLID_1249_">
        <rect fill="#4396D5" height="157.89" id="XMLID_1350_" width="61.09" x="-0.16" y="214.7"/>
       </g>
       <g id="XMLID_1250_">
        <path d="m61.5,373.11l-62.22,0l0,-158.91l62.22,0l0,158.91zm-61.1,-1l59.97,0l0,-156.9l-59.97,0l0,156.9z" fill="#1F2024" id="XMLID_1251_"/>
       </g>
      </g>
      <g id="XMLID_2459_">
       <g id="XMLID_1254_">
        <rect fill="#1F2024" height="1" id="XMLID_1255_" width="22.84" x="4.97" y="221.1"/>
       </g>
       <g id="XMLID_1256_">
        <rect fill="#1F2024" height="1" id="XMLID_1257_" width="22.84" x="4.97" y="234.17"/>
       </g>
       <g id="XMLID_1258_">
        <rect fill="#1F2024" height="1" id="XMLID_1259_" width="22.84" x="4.97" y="247.24"/>
       </g>
       <g id="XMLID_1260_">
        <rect fill="#1F2024" height="1" id="XMLID_1261_" width="22.84" x="4.97" y="260.31"/>
       </g>
       <g id="XMLID_1262_">
        <rect fill="#1F2024" height="1" id="XMLID_1263_" width="22.84" x="4.97" y="273.38"/>
       </g>
       <g id="XMLID_1264_">
        <rect fill="#1F2024" height="1" id="XMLID_1265_" width="22.84" x="4.97" y="286.46"/>
       </g>
       <g id="XMLID_1266_">
        <rect fill="#1F2024" height="1" id="XMLID_1267_" width="22.84" x="4.97" y="299.53"/>
       </g>
       <g id="XMLID_1268_">
        <rect fill="#1F2024" height="1" id="XMLID_1269_" width="22.84" x="4.97" y="312.61"/>
       </g>
       <g id="XMLID_1270_">
        <rect fill="#1F2024" height="1" id="XMLID_1271_" width="22.84" x="4.97" y="325.67"/>
       </g>
       <g id="XMLID_1272_">
        <rect fill="#1F2024" height="1" id="XMLID_1273_" width="22.84" x="4.97" y="338.74"/>
       </g>
       <g id="XMLID_1274_">
        <rect fill="#1F2024" height="1" id="XMLID_1275_" width="22.84" x="4.97" y="351.82"/>
       </g>
       <g id="XMLID_1276_">
        <rect fill="#1F2024" height="1" id="XMLID_1277_" width="22.84" x="4.97" y="364.89"/>
       </g>
      </g>
      <g id="XMLID_2458_">
       <g id="XMLID_1278_">
        <rect fill="#FFFFFF" height="143.8" id="XMLID_1349_" width="15.38" x="35.26" y="221.6"/>
       </g>
       <g id="XMLID_1279_">
        <path d="m51.21,365.9l-16.51,0l0,-144.8l16.51,0l0,144.8zm-15.38,-1l14.26,0l0,-142.79l-14.26,0l0,142.79z" fill="#1F2024" id="XMLID_1280_"/>
       </g>
      </g>
      <g id="XMLID_2457_">
       <g id="XMLID_1283_">
        <rect fill="#FFD500" height="6.67" id="XMLID_1330_" width="61.18" x="-0.16" y="208.03"/>
       </g>
       <g id="XMLID_1284_">
        <path d="m61.5,215.21l-62.13,0l0,-7.68l62.13,0l0,7.68zm-61.18,-1l60.23,0l0,-5.67l-60.23,0l0,5.67z" fill="#1F2024" id="XMLID_1285_"/>
       </g>
      </g>
      <g id="XMLID_2456_">
       <g id="XMLID_1288_">
        <rect fill="#FED9CA" height="4.51" id="XMLID_1319_" width="61.09" x="-0.16" y="203.53"/>
       </g>
       <g id="XMLID_1289_">
        <path d="m61.5,208.53l-62.22,0l0,-5.51l62.22,0l0,5.51zm-61.1,-1l59.97,0l0,-3.5l-59.97,0l0,3.5z" fill="#1F2024" id="XMLID_1290_"/>
       </g>
      </g>
      <g id="XMLID_2451_">
       <g id="XMLID_1293_">
        <rect fill="#1F2024" height="4.22" id="XMLID_1348_" width="54.1" x="6.83" y="199.3"/>
       </g>
       <g id="XMLID_1294_">
        <path d="m61.5,204.03l-55.22,0l0,-5.23l55.22,0l0,5.23zm-54.1,-1l52.98,0l0,-3.22l-52.98,0l0,3.22z" fill="#1F2024" id="XMLID_1295_"/>
       </g>
      </g>
     </g>
     <g id="XMLID_1619_">
      <g id="XMLID_1622_">
       <g id="XMLID_1299_">
        <path d="m691.3,354.74l-16.55,0l0,-13.78c0,-4.14 3.7,-7.52 8.27,-7.52l0,0c4.58,0 8.28,3.36 8.28,7.52l0,13.78z" fill="#FFD500" id="XMLID_1347_"/>
       </g>
       <g id="XMLID_1300_">
        <path d="m691.3,355.24l-16.55,0c-0.31,0 -0.55,-0.23 -0.55,-0.5l0,-13.78c0,-4.41 3.95,-8.02 8.82,-8.02c4.88,0 8.83,3.6 8.83,8.02l0,13.78c0,0.27 -0.24,0.5 -0.55,0.5zm-16,-1l15.45,0l0,-13.27c0,-3.86 -3.46,-7.01 -7.72,-7.01c-4.27,0 -7.73,3.15 -7.73,7.01l0,13.27z" fill="#FFFFFF" id="XMLID_1301_"/>
       </g>
      </g>
      <g id="XMLID_1621_">
       <g id="XMLID_1304_">
        <path d="m683.29,374.22c-0.3,0 -0.55,-0.22 -0.55,-0.5l0,-31.29c0,-0.27 0.25,-0.5 0.55,-0.5c0.31,0 0.55,0.23 0.55,0.5l0,31.29c0,0.28 -0.24,0.5 -0.55,0.5z" fill="#FFFFFF" id="XMLID_1305_"/>
       </g>
      </g>
      <g id="XMLID_1620_">
       <g id="XMLID_1306_">
        <path d="m683.29,348.46c-0.13,0 -0.28,-0.05 -0.39,-0.15c-0.22,-0.19 -0.22,-0.51 0,-0.71l4.32,-3.9c0.21,-0.2 0.56,-0.2 0.78,0c0.21,0.19 0.21,0.51 0,0.7l-4.32,3.91c-0.11,0.1 -0.25,0.15 -0.4,0.15l0.01,0z" fill="#FFFFFF" id="XMLID_1307_"/>
       </g>
      </g>
     </g>
     <g id="XMLID_1248_">
      <g id="XMLID_1298_">
       <g id="XMLID_1308_">
        <path d="m69.22,354.74l-16.55,0l0,-13.78c0,-4.14 3.7,-7.52 8.28,-7.52l0,0c4.57,0 8.27,3.36 8.27,7.52l0,13.78z" fill="#FFD500" id="XMLID_1346_"/>
       </g>
       <g id="XMLID_1309_">
        <path d="m69.22,355.24l-16.55,0c-0.31,0 -0.55,-0.23 -0.55,-0.5l0,-13.78c0,-4.41 3.95,-8.02 8.83,-8.02c4.87,0 8.82,3.6 8.82,8.02l0,13.78c0,0.27 -0.24,0.5 -0.55,0.5zm-16,-1l15.45,0l0,-13.27c0,-3.86 -3.46,-7.01 -7.72,-7.01c-4.27,0 -7.73,3.15 -7.73,7.01l0,13.27z" fill="#FFFFFF" id="XMLID_1310_"/>
       </g>
      </g>
      <g id="XMLID_1313_">
       <g id="XMLID_1314_">
        <path d="m61.2,374.22c-0.3,0 -0.55,-0.22 -0.55,-0.5l0,-31.29c0,-0.27 0.25,-0.5 0.55,-0.5c0.31,0 0.55,0.23 0.55,0.5l0,31.29c0,0.28 -0.24,0.5 -0.55,0.5z" fill="#FFFFFF" id="XMLID_1315_"/>
       </g>
      </g>
      <g id="XMLID_1316_">
       <g id="XMLID_1317_">
        <path d="m61.2,348.46c-0.13,0 -0.28,-0.05 -0.39,-0.15c-0.21,-0.19 -0.21,-0.51 0,-0.71l4.32,-3.9c0.21,-0.2 0.56,-0.2 0.78,0c0.21,0.19 0.21,0.51 0,0.7l-4.32,3.91c-0.11,0.1 -0.25,0.15 -0.4,0.15l0.01,0z" fill="#FFFFFF" id="XMLID_1318_"/>
       </g>
      </g>
     </g>
     <g id="XMLID_2862_">
      <g id="XMLID_1320_">
       <rect fill="#1F2024" height="7.16" id="XMLID_1345_" width="168.17" x="-0.12" y="373.24"/>
      </g>
      <g id="XMLID_1321_">
       <path d="m168.57,380.92l-169.21,0l0,-8.18l169.21,0l0,8.18zm-168.17,-1l167.12,0l0,-6.17l-167.12,0l0,6.17z" fill="#1F2024" id="XMLID_1322_"/>
      </g>
     </g>
     <g id="XMLID_2861_">
      <g id="XMLID_1325_">
       <rect fill="#1F2024" height="7.16" id="XMLID_1344_" width="331.35" x="475.2" y="373.24"/>
      </g>
      <g id="XMLID_1326_">
       <path d="m807.1,380.92l-332.45,0l0,-8.18l332.45,0l0,8.18zm-331.34,-1l330.24,0l0,-6.17l-330.24,0l0,6.17z" fill="#1F2024" id="XMLID_1327_"/>
      </g>
     </g>
    </g>
   </g>
  </g>
 </g>
</svg>